<svg viewBox="0 0 1200 630" xmlns="http://www.w3.org/2000/svg">
  <defs>
    <linearGradient id="bg" x1="0" y1="0" x2="0" y2="1">
      <stop offset="0%" stop-color="#F5F3FF"/>
      <stop offset="100%" stop-color="#EDE9FE"/>
    </linearGradient>
    <filter id="shadow">
      <feDropShadow dx="0" dy="8" stdDeviation="16" flood-color="#7F77DD" flood-opacity="0.11"/>
    </filter>
  </defs>
  <rect width="1200" height="630" fill="url(#bg)"/>

  <!-- Main 2-column card -->
  <rect x="60" y="60" width="1080" height="510" rx="20" fill="white" filter="url(#shadow)"/>
  <rect x="60" y="60" width="1080" height="52" rx="20" fill="#7F77DD"/>
  <rect x="60" y="94" width="1080" height="18" fill="#7F77DD"/>
  <rect x="90" y="76" width="200" height="10" rx="5" fill="white" opacity="0.6"/>

  <!-- Column divider -->
  <line x1="600" y1="112" x2="600" y2="570" stroke="#F3F4F6" stroke-width="1.5"/>

  <!-- Left: AI strengths -->
  <rect x="78" y="128" width="200" height="22" rx="8" fill="#10B981" opacity="0.12"/>
  <rect x="90" y="134" width="140" height="8" rx="4" fill="#10B981" opacity="0.55"/>

  <rect x="78" y="164" width="500" height="56" rx="10" fill="#F0FDF4" stroke="#A7F3D0" stroke-width="1"/>
  <circle cx="98" cy="192" r="10" fill="#10B981" opacity="0.7"/>
  <path d="M92 192 l3 3 l7-7" stroke="white" stroke-width="2" fill="none" stroke-linecap="round" stroke-linejoin="round"/>
  <rect x="118" y="178" width="140" height="8" rx="4" fill="#10B981" opacity="0.5"/>
  <rect x="118" y="192" width="420" height="6" rx="3" fill="#9CA3AF" opacity="0.3"/>
  <rect x="118" y="204" width="360" height="6" rx="3" fill="#9CA3AF" opacity="0.24"/>

  <rect x="78" y="232" width="500" height="56" rx="10" fill="#F0FDF4" stroke="#A7F3D0" stroke-width="1"/>
  <circle cx="98" cy="260" r="10" fill="#10B981" opacity="0.7"/>
  <path d="M92 260 l3 3 l7-7" stroke="white" stroke-width="2" fill="none" stroke-linecap="round" stroke-linejoin="round"/>
  <rect x="118" y="246" width="160" height="8" rx="4" fill="#10B981" opacity="0.5"/>
  <rect x="118" y="260" width="400" height="6" rx="3" fill="#9CA3AF" opacity="0.28"/>
  <rect x="118" y="272" width="340" height="6" rx="3" fill="#9CA3AF" opacity="0.22"/>

  <rect x="78" y="300" width="500" height="56" rx="10" fill="#F0FDF4" stroke="#A7F3D0" stroke-width="1"/>
  <circle cx="98" cy="328" r="10" fill="#10B981" opacity="0.7"/>
  <path d="M92 328 l3 3 l7-7" stroke="white" stroke-width="2" fill="none" stroke-linecap="round" stroke-linejoin="round"/>
  <rect x="118" y="314" width="130" height="8" rx="4" fill="#10B981" opacity="0.5"/>
  <rect x="118" y="328" width="420" height="6" rx="3" fill="#9CA3AF" opacity="0.28"/>
  <rect x="118" y="340" width="360" height="6" rx="3" fill="#9CA3AF" opacity="0.22"/>

  <rect x="78" y="368" width="500" height="56" rx="10" fill="#F0FDF4" stroke="#A7F3D0" stroke-width="1"/>
  <circle cx="98" cy="396" r="10" fill="#10B981" opacity="0.65"/>
  <path d="M92 396 l3 3 l7-7" stroke="white" stroke-width="2" fill="none" stroke-linecap="round" stroke-linejoin="round"/>
  <rect x="118" y="382" width="150" height="8" rx="4" fill="#10B981" opacity="0.45"/>
  <rect x="118" y="396" width="400" height="6" rx="3" fill="#9CA3AF" opacity="0.25"/>
  <rect x="118" y="408" width="340" height="6" rx="3" fill="#9CA3AF" opacity="0.2"/>

  <!-- Right: AI limitations -->
  <rect x="620" y="128" width="200" height="22" rx="8" fill="#EF4444" opacity="0.1"/>
  <rect x="632" y="134" width="140" height="8" rx="4" fill="#EF4444" opacity="0.45"/>

  <rect x="620" y="164" width="500" height="56" rx="10" fill="#FFF1F2" stroke="#FECDD3" stroke-width="1"/>
  <circle cx="640" cy="192" r="10" fill="#EF4444" opacity="0.55"/>
  <rect x="634" y="187" width="12" height="10" rx="1" fill="white" opacity="0.8"/>
  <rect x="660" y="178" width="140" height="8" rx="4" fill="#EF4444" opacity="0.4"/>
  <rect x="660" y="192" width="420" height="6" rx="3" fill="#9CA3AF" opacity="0.28"/>
  <rect x="660" y="204" width="360" height="6" rx="3" fill="#9CA3AF" opacity="0.22"/>

  <rect x="620" y="232" width="500" height="56" rx="10" fill="#FFF1F2" stroke="#FECDD3" stroke-width="1"/>
  <circle cx="640" cy="260" r="10" fill="#EF4444" opacity="0.5"/>
  <rect x="634" y="255" width="12" height="10" rx="1" fill="white" opacity="0.8"/>
  <rect x="660" y="246" width="120" height="8" rx="4" fill="#EF4444" opacity="0.35"/>
  <rect x="660" y="260" width="400" height="6" rx="3" fill="#9CA3AF" opacity="0.25"/>
  <rect x="660" y="272" width="340" height="6" rx="3" fill="#9CA3AF" opacity="0.2"/>

  <rect x="620" y="300" width="500" height="56" rx="10" fill="#FFF1F2" stroke="#FECDD3" stroke-width="1"/>
  <circle cx="640" cy="328" r="10" fill="#EF4444" opacity="0.5"/>
  <rect x="634" y="323" width="12" height="10" rx="1" fill="white" opacity="0.8"/>
  <rect x="660" y="314" width="160" height="8" rx="4" fill="#EF4444" opacity="0.35"/>
  <rect x="660" y="328" width="400" height="6" rx="3" fill="#9CA3AF" opacity="0.25"/>
  <rect x="660" y="340" width="340" height="6" rx="3" fill="#9CA3AF" opacity="0.2"/>

  <rect x="620" y="368" width="500" height="56" rx="10" fill="#FFFBEB" stroke="#FDE68A" stroke-width="1"/>
  <circle cx="640" cy="396" r="10" fill="#F59E0B" opacity="0.6"/>
  <rect x="634" y="391" width="12" height="10" rx="1" fill="white" opacity="0.8"/>
  <rect x="660" y="382" width="130" height="8" rx="4" fill="#F59E0B" opacity="0.45"/>
  <rect x="660" y="396" width="400" height="6" rx="3" fill="#9CA3AF" opacity="0.25"/>
  <rect x="660" y="408" width="340" height="6" rx="3" fill="#9CA3AF" opacity="0.2"/>

  <!-- Bottom verdict -->
  <rect x="78" y="446" width="1040" height="76" rx="12" fill="#7F77DD" opacity="0.06" stroke="#DDD6FE" stroke-width="1"/>
  <rect x="78" y="446" width="6" height="76" rx="3" fill="#7F77DD" opacity="0.5"/>
  <rect x="96" y="462" width="160" height="8" rx="4" fill="#7F77DD" opacity="0.45"/>
  <rect x="96" y="478" width="900" height="6" rx="3" fill="#9CA3AF" opacity="0.3"/>
  <rect x="96" y="490" width="800" height="6" rx="3" fill="#9CA3AF" opacity="0.24"/>
  <rect x="96" y="502" width="700" height="6" rx="3" fill="#9CA3AF" opacity="0.18"/>

  <circle cx="60" cy="580" r="45" fill="#7F77DD" opacity="0.04"/>
  <circle cx="1150" cy="90" r="40" fill="#A78BFA" opacity="0.05"/>
</svg>
