<svg viewBox="0 0 1200 630" xmlns="http://www.w3.org/2000/svg">
  <defs>
    <linearGradient id="bg" x1="0" y1="0" x2="0" y2="1">
      <stop offset="0%" stop-color="#F5F3FF"/>
      <stop offset="100%" stop-color="#EDE9FE"/>
    </linearGradient>
    <filter id="shadow">
      <feDropShadow dx="0" dy="8" stdDeviation="16" flood-color="#7F77DD" flood-opacity="0.11"/>
    </filter>
  </defs>
  <rect width="1200" height="630" fill="url(#bg)"/>

  <!-- Timeline bar top -->
  <rect x="60" y="60" width="1080" height="60" rx="14" fill="white" filter="url(#shadow)"/>
  <rect x="60" y="60" width="1080" height="60" rx="14" fill="#7F77DD" opacity="0.08"/>

  <!-- Quarter markers on timeline -->
  <rect x="80" y="78" width="220" height="24" rx="8" fill="#7F77DD" opacity="0.18"/>
  <rect x="96" y="85" width="120" height="8" rx="4" fill="#7F77DD" opacity="0.55"/>

  <rect x="320" y="78" width="220" height="24" rx="8" fill="#A78BFA" opacity="0.15"/>
  <rect x="336" y="85" width="100" height="8" rx="4" fill="#A78BFA" opacity="0.5"/>

  <rect x="560" y="78" width="220" height="24" rx="8" fill="#3B82F6" opacity="0.12"/>
  <rect x="576" y="85" width="110" height="8" rx="4" fill="#3B82F6" opacity="0.45"/>

  <rect x="800" y="78" width="260" height="24" rx="8" fill="#10B981" opacity="0.12"/>
  <rect x="816" y="85" width="120" height="8" rx="4" fill="#10B981" opacity="0.45"/>

  <!-- 3 roadmap swim lanes -->
  <!-- Lane 1: Discovery -->
  <rect x="60" y="156" width="1080" height="130" rx="16" fill="white" filter="url(#shadow)"/>
  <rect x="60" y="156" width="1080" height="36" rx="16" fill="#7F77DD" opacity="0.75"/>
  <rect x="60" y="180" width="1080" height="12" fill="#7F77DD" opacity="0.75"/>
  <rect x="80" y="166" width="100" height="8" rx="4" fill="white" opacity="0.65"/>

  <!-- Items in lane 1 -->
  <rect x="80" y="204" width="240" height="62" rx="10" fill="#F5F3FF" stroke="#DDD6FE" stroke-width="1"/>
  <rect x="80" y="204" width="8" height="62" rx="4" fill="#7F77DD" opacity="0.6"/>
  <rect x="98" y="216" width="140" height="8" rx="4" fill="#7F77DD" opacity="0.5"/>
  <rect x="98" y="231" width="180" height="6" rx="3" fill="#9CA3AF" opacity="0.3"/>
  <rect x="98" y="243" width="160" height="6" rx="3" fill="#9CA3AF" opacity="0.24"/>
  <circle cx="296" cy="219" r="8" fill="#7F77DD" opacity="0.2"/>

  <rect x="340" y="204" width="200" height="62" rx="10" fill="#F5F3FF" stroke="#DDD6FE" stroke-width="1"/>
  <rect x="340" y="204" width="8" height="62" rx="4" fill="#A78BFA" opacity="0.5"/>
  <rect x="358" y="216" width="120" height="8" rx="4" fill="#A78BFA" opacity="0.5"/>
  <rect x="358" y="231" width="160" height="6" rx="3" fill="#9CA3AF" opacity="0.28"/>
  <rect x="358" y="243" width="140" height="6" rx="3" fill="#9CA3AF" opacity="0.22"/>

  <rect x="560" y="204" width="200" height="62" rx="10" fill="#F5F3FF" stroke="#DDD6FE" stroke-width="1"/>
  <rect x="560" y="204" width="8" height="62" rx="4" fill="#3B82F6" opacity="0.4"/>
  <rect x="578" y="216" width="130" height="8" rx="4" fill="#3B82F6" opacity="0.45"/>
  <rect x="578" y="231" width="160" height="6" rx="3" fill="#9CA3AF" opacity="0.25"/>
  <rect x="578" y="243" width="130" height="6" rx="3" fill="#9CA3AF" opacity="0.2"/>

  <!-- Lane 2: Development -->
  <rect x="60" y="312" width="1080" height="130" rx="16" fill="white" filter="url(#shadow)"/>
  <rect x="60" y="312" width="1080" height="36" rx="16" fill="#A78BFA" opacity="0.65"/>
  <rect x="60" y="336" width="1080" height="12" fill="#A78BFA" opacity="0.65"/>
  <rect x="80" y="322" width="100" height="8" rx="4" fill="white" opacity="0.65"/>

  <rect x="80" y="360" width="160" height="62" rx="10" fill="#F5F3FF" stroke="#DDD6FE" stroke-width="1"/>
  <rect x="80" y="360" width="8" height="62" rx="4" fill="#7F77DD" opacity="0.5"/>
  <rect x="98" y="372" width="100" height="8" rx="4" fill="#7F77DD" opacity="0.45"/>
  <rect x="98" y="387" width="130" height="6" rx="3" fill="#9CA3AF" opacity="0.28"/>
  <rect x="98" y="399" width="110" height="6" rx="3" fill="#9CA3AF" opacity="0.22"/>

  <rect x="260" y="360" width="280" height="62" rx="10" fill="#F5F3FF" stroke="#DDD6FE" stroke-width="1"/>
  <rect x="260" y="360" width="8" height="62" rx="4" fill="#A78BFA" opacity="0.55"/>
  <rect x="278" y="372" width="160" height="8" rx="4" fill="#A78BFA" opacity="0.5"/>
  <rect x="278" y="387" width="220" height="6" rx="3" fill="#9CA3AF" opacity="0.28"/>
  <rect x="278" y="399" width="190" height="6" rx="3" fill="#9CA3AF" opacity="0.22"/>

  <rect x="560" y="360" width="240" height="62" rx="10" fill="#F5F3FF" stroke="#DDD6FE" stroke-width="1"/>
  <rect x="560" y="360" width="8" height="62" rx="4" fill="#10B981" opacity="0.5"/>
  <rect x="578" y="372" width="130" height="8" rx="4" fill="#10B981" opacity="0.45"/>
  <rect x="578" y="387" width="180" height="6" rx="3" fill="#9CA3AF" opacity="0.25"/>
  <rect x="578" y="399" width="160" height="6" rx="3" fill="#9CA3AF" opacity="0.2"/>

  <rect x="820" y="360" width="200" height="62" rx="10" fill="#FFF7ED" stroke="#FDE68A" stroke-width="1"/>
  <rect x="820" y="360" width="8" height="62" rx="4" fill="#F59E0B" opacity="0.5"/>
  <rect x="838" y="372" width="120" height="8" rx="4" fill="#F59E0B" opacity="0.45"/>
  <rect x="838" y="387" width="160" height="6" rx="3" fill="#9CA3AF" opacity="0.25"/>
  <rect x="838" y="399" width="130" height="6" rx="3" fill="#9CA3AF" opacity="0.2"/>

  <!-- Lane 3: AI Suggestions -->
  <rect x="60" y="468" width="1080" height="116" rx="16" fill="white" filter="url(#shadow)"/>
  <rect x="60" y="468" width="1080" height="36" rx="16" fill="#10B981" opacity="0.55"/>
  <rect x="60" y="492" width="1080" height="12" fill="#10B981" opacity="0.55"/>
  <rect x="80" y="478" width="120" height="8" rx="4" fill="white" opacity="0.65"/>

  <!-- AI suggestion chips -->
  <rect x="80" y="512" width="180" height="52" rx="10" fill="#F0FDF4" stroke="#A7F3D0" stroke-width="1"/>
  <circle cx="101" cy="527" r="8" fill="#10B981" opacity="0.3"/>
  <rect x="118" y="523" width="100" height="7" rx="3" fill="#10B981" opacity="0.5"/>
  <rect x="118" y="537" width="120" height="6" rx="3" fill="#9CA3AF" opacity="0.28"/>
  <rect x="118" y="549" width="100" height="6" rx="3" fill="#9CA3AF" opacity="0.22"/>

  <rect x="280" y="512" width="180" height="52" rx="10" fill="#F0FDF4" stroke="#A7F3D0" stroke-width="1"/>
  <circle cx="301" cy="527" r="8" fill="#10B981" opacity="0.3"/>
  <rect x="318" y="523" width="110" height="7" rx="3" fill="#10B981" opacity="0.45"/>
  <rect x="318" y="537" width="120" height="6" rx="3" fill="#9CA3AF" opacity="0.25"/>
  <rect x="318" y="549" width="100" height="6" rx="3" fill="#9CA3AF" opacity="0.2"/>

  <rect x="480" y="512" width="180" height="52" rx="10" fill="#F0FDF4" stroke="#A7F3D0" stroke-width="1"/>
  <circle cx="501" cy="527" r="8" fill="#10B981" opacity="0.3"/>
  <rect x="518" y="523" width="100" height="7" rx="3" fill="#10B981" opacity="0.4"/>
  <rect x="518" y="537" width="120" height="6" rx="3" fill="#9CA3AF" opacity="0.25"/>
  <rect x="518" y="549" width="90" height="6" rx="3" fill="#9CA3AF" opacity="0.2"/>

  <rect x="680" y="512" width="200" height="52" rx="10" fill="#F5F3FF" stroke="#DDD6FE" stroke-width="1"/>
  <circle cx="701" cy="527" r="8" fill="#7F77DD" opacity="0.25"/>
  <rect x="718" y="523" width="110" height="7" rx="3" fill="#7F77DD" opacity="0.4"/>
  <rect x="718" y="537" width="140" height="6" rx="3" fill="#9CA3AF" opacity="0.25"/>
  <rect x="718" y="549" width="110" height="6" rx="3" fill="#9CA3AF" opacity="0.18"/>

  <circle cx="60" cy="580" r="45" fill="#7F77DD" opacity="0.04"/>
  <circle cx="1150" cy="90" r="40" fill="#A78BFA" opacity="0.05"/>
</svg>
