<svg viewBox="0 0 1200 630" xmlns="http://www.w3.org/2000/svg">
  <defs>
    <linearGradient id="bg" x1="0" y1="0" x2="0" y2="1">
      <stop offset="0%" stop-color="#F5F3FF"/>
      <stop offset="100%" stop-color="#EDE9FE"/>
    </linearGradient>
    <filter id="shadow">
      <feDropShadow dx="0" dy="8" stdDeviation="16" flood-color="#7F77DD" flood-opacity="0.11"/>
    </filter>
  </defs>
  <rect width="1200" height="630" fill="url(#bg)"/>

  <!-- Transcript inputs left -->
  <rect x="60" y="80" width="280" height="470" rx="16" fill="white" filter="url(#shadow)"/>
  <rect x="60" y="80" width="280" height="36" rx="16" fill="#9CA3AF" opacity="0.4"/>
  <rect x="60" y="104" width="280" height="12" fill="#9CA3AF" opacity="0.4"/>
  <rect x="76" y="90" width="100" height="8" rx="5" fill="white" opacity="0.7"/>

  <rect x="76" y="132" width="248" height="80" rx="10" fill="#F9FAFB" stroke="#E5E7EB" stroke-width="1"/>
  <rect x="88" y="143" width="80" height="7" rx="3" fill="#9CA3AF" opacity="0.5"/>
  <rect x="88" y="156" width="220" height="6" rx="3" fill="#9CA3AF" opacity="0.3"/>
  <rect x="88" y="168" width="200" height="6" rx="3" fill="#9CA3AF" opacity="0.24"/>
  <rect x="88" y="180" width="210" height="6" rx="3" fill="#9CA3AF" opacity="0.2"/>
  <rect x="88" y="192" width="180" height="6" rx="3" fill="#9CA3AF" opacity="0.16"/>

  <rect x="76" y="224" width="248" height="80" rx="10" fill="#F9FAFB" stroke="#E5E7EB" stroke-width="1"/>
  <rect x="88" y="235" width="80" height="7" rx="3" fill="#9CA3AF" opacity="0.5"/>
  <rect x="88" y="248" width="220" height="6" rx="3" fill="#9CA3AF" opacity="0.28"/>
  <rect x="88" y="260" width="200" height="6" rx="3" fill="#9CA3AF" opacity="0.22"/>
  <rect x="88" y="272" width="210" height="6" rx="3" fill="#9CA3AF" opacity="0.18"/>
  <rect x="88" y="284" width="180" height="6" rx="3" fill="#9CA3AF" opacity="0.15"/>

  <rect x="76" y="316" width="248" height="80" rx="10" fill="#F9FAFB" stroke="#E5E7EB" stroke-width="1"/>
  <rect x="88" y="327" width="80" height="7" rx="3" fill="#9CA3AF" opacity="0.45"/>
  <rect x="88" y="340" width="220" height="6" rx="3" fill="#9CA3AF" opacity="0.25"/>
  <rect x="88" y="352" width="200" height="6" rx="3" fill="#9CA3AF" opacity="0.2"/>
  <rect x="88" y="364" width="210" height="6" rx="3" fill="#9CA3AF" opacity="0.16"/>
  <rect x="88" y="376" width="180" height="6" rx="3" fill="#9CA3AF" opacity="0.13"/>

  <!-- AI processing -->
  <polygon points="356,315 382,305 382,325" fill="#7F77DD" opacity="0.4"/>
  <line x1="340" y1="315" x2="382" y2="315" stroke="#7F77DD" stroke-width="2" opacity="0.35"/>

  <!-- Theme output center -->
  <rect x="390" y="80" width="420" height="470" rx="16" fill="white" filter="url(#shadow)"/>
  <rect x="390" y="80" width="420" height="36" rx="16" fill="#7F77DD"/>
  <rect x="390" y="104" width="420" height="12" fill="#7F77DD"/>
  <rect x="406" y="90" width="120" height="8" rx="5" fill="white" opacity="0.65"/>

  <rect x="406" y="134" width="388" height="64" rx="10" fill="#F5F3FF" stroke="#DDD6FE" stroke-width="1"/>
  <rect x="406" y="134" width="6" height="64" rx="3" fill="#7F77DD" opacity="0.65"/>
  <rect x="420" y="146" width="100" height="8" rx="4" fill="#7F77DD" opacity="0.5"/>
  <rect x="420" y="161" width="340" height="6" rx="3" fill="#9CA3AF" opacity="0.32"/>
  <rect x="420" y="173" width="300" height="6" rx="3" fill="#9CA3AF" opacity="0.25"/>
  <rect x="420" y="185" width="320" height="6" rx="3" fill="#9CA3AF" opacity="0.2"/>

  <rect x="406" y="212" width="388" height="64" rx="10" fill="#F5F3FF" stroke="#DDD6FE" stroke-width="1"/>
  <rect x="406" y="212" width="6" height="64" rx="3" fill="#A78BFA" opacity="0.6"/>
  <rect x="420" y="224" width="120" height="8" rx="4" fill="#A78BFA" opacity="0.5"/>
  <rect x="420" y="239" width="340" height="6" rx="3" fill="#9CA3AF" opacity="0.3"/>
  <rect x="420" y="251" width="300" height="6" rx="3" fill="#9CA3AF" opacity="0.24"/>
  <rect x="420" y="263" width="320" height="6" rx="3" fill="#9CA3AF" opacity="0.18"/>

  <rect x="406" y="290" width="388" height="64" rx="10" fill="#F5F3FF" stroke="#DDD6FE" stroke-width="1"/>
  <rect x="406" y="290" width="6" height="64" rx="3" fill="#10B981" opacity="0.6"/>
  <rect x="420" y="302" width="110" height="8" rx="4" fill="#10B981" opacity="0.5"/>
  <rect x="420" y="317" width="340" height="6" rx="3" fill="#9CA3AF" opacity="0.28"/>
  <rect x="420" y="329" width="300" height="6" rx="3" fill="#9CA3AF" opacity="0.22"/>
  <rect x="420" y="341" width="320" height="6" rx="3" fill="#9CA3AF" opacity="0.18"/>

  <rect x="406" y="368" width="388" height="52" rx="10" fill="#FFF1F2" stroke="#FECDD3" stroke-width="1"/>
  <rect x="406" y="368" width="6" height="52" rx="3" fill="#EF4444" opacity="0.5"/>
  <rect x="420" y="380" width="100" height="8" rx="4" fill="#EF4444" opacity="0.4"/>
  <rect x="420" y="394" width="340" height="6" rx="3" fill="#9CA3AF" opacity="0.25"/>
  <rect x="420" y="406" width="300" height="6" rx="3" fill="#9CA3AF" opacity="0.2"/>

  <rect x="406" y="434" width="388" height="96" rx="10" fill="#F0FDF4" stroke="#A7F3D0" stroke-width="1"/>
  <rect x="420" y="448" width="120" height="8" rx="4" fill="#10B981" opacity="0.5"/>
  <rect x="420" y="464" width="340" height="6" rx="3" fill="#9CA3AF" opacity="0.28"/>
  <rect x="420" y="477" width="300" height="6" rx="3" fill="#9CA3AF" opacity="0.22"/>
  <rect x="420" y="490" width="320" height="6" rx="3" fill="#9CA3AF" opacity="0.18"/>
  <rect x="420" y="505" width="280" height="6" rx="3" fill="#9CA3AF" opacity="0.14"/>

  <!-- Arrow to PRD -->
  <polygon points="826,315 852,305 852,325" fill="#7F77DD" opacity="0.4"/>
  <line x1="810" y1="315" x2="852" y2="315" stroke="#7F77DD" stroke-width="2" opacity="0.35"/>

  <!-- PRD output right -->
  <rect x="860" y="80" width="280" height="470" rx="16" fill="white" filter="url(#shadow)"/>
  <rect x="860" y="80" width="280" height="36" rx="16" fill="#10B981" opacity="0.7"/>
  <rect x="860" y="104" width="280" height="12" fill="#10B981" opacity="0.7"/>
  <rect x="876" y="90" width="100" height="8" rx="5" fill="white" opacity="0.65"/>

  <rect x="876" y="132" width="248" height="56" rx="10" fill="#F0FDF4" stroke="#A7F3D0" stroke-width="1"/>
  <rect x="892" y="143" width="100" height="7" rx="3" fill="#10B981" opacity="0.5"/>
  <rect x="892" y="156" width="210" height="6" rx="3" fill="#9CA3AF" opacity="0.28"/>
  <rect x="892" y="168" width="180" height="6" rx="3" fill="#9CA3AF" opacity="0.22"/>
  <rect x="1084" y="137" width="30" height="16" rx="8" fill="#10B981" opacity="0.15"/>

  <rect x="876" y="200" width="248" height="56" rx="10" fill="#F0FDF4" stroke="#A7F3D0" stroke-width="1"/>
  <rect x="892" y="211" width="80" height="7" rx="3" fill="#10B981" opacity="0.5"/>
  <rect x="892" y="224" width="210" height="6" rx="3" fill="#9CA3AF" opacity="0.25"/>
  <rect x="892" y="236" width="180" height="6" rx="3" fill="#9CA3AF" opacity="0.2"/>
  <rect x="1084" y="205" width="30" height="16" rx="8" fill="#10B981" opacity="0.15"/>

  <rect x="876" y="268" width="248" height="56" rx="10" fill="#F0FDF4" stroke="#A7F3D0" stroke-width="1"/>
  <rect x="892" y="279" width="100" height="7" rx="3" fill="#10B981" opacity="0.45"/>
  <rect x="892" y="292" width="210" height="6" rx="3" fill="#9CA3AF" opacity="0.25"/>
  <rect x="892" y="304" width="180" height="6" rx="3" fill="#9CA3AF" opacity="0.2"/>
  <rect x="1084" y="273" width="30" height="16" rx="8" fill="#10B981" opacity="0.15"/>

  <rect x="876" y="340" width="248" height="190" rx="10" fill="#F5F3FF" stroke="#DDD6FE" stroke-width="1"/>
  <rect x="892" y="352" width="120" height="7" rx="3" fill="#7F77DD" opacity="0.4"/>
  <rect x="892" y="365" width="210" height="6" rx="3" fill="#9CA3AF" opacity="0.22"/>
  <rect x="892" y="377" width="180" height="6" rx="3" fill="#9CA3AF" opacity="0.18"/>
  <rect x="892" y="400" width="140" height="7" rx="3" fill="#7F77DD" opacity="0.35"/>
  <rect x="892" y="413" width="210" height="6" rx="3" fill="#9CA3AF" opacity="0.2"/>
  <rect x="892" y="425" width="180" height="6" rx="3" fill="#9CA3AF" opacity="0.16"/>
  <rect x="892" y="448" width="100" height="7" rx="3" fill="#A78BFA" opacity="0.35"/>
  <rect x="892" y="461" width="210" height="6" rx="3" fill="#9CA3AF" opacity="0.18"/>
  <rect x="892" y="473" width="180" height="6" rx="3" fill="#9CA3AF" opacity="0.14"/>
  <rect x="892" y="496" width="210" height="6" rx="3" fill="#9CA3AF" opacity="0.16"/>
  <rect x="892" y="509" width="180" height="6" rx="3" fill="#9CA3AF" opacity="0.13"/>

  <circle cx="60" cy="580" r="45" fill="#7F77DD" opacity="0.04"/>
</svg>
