<svg viewBox="0 0 1200 630" xmlns="http://www.w3.org/2000/svg">
  <defs>
    <linearGradient id="bg" x1="0" y1="0" x2="0" y2="1">
      <stop offset="0%" stop-color="#F5F3FF"/>
      <stop offset="100%" stop-color="#EDE9FE"/>
    </linearGradient>
    <filter id="shadow">
      <feDropShadow dx="0" dy="8" stdDeviation="16" flood-color="#7F77DD" flood-opacity="0.11"/>
    </filter>
  </defs>
  <rect width="1200" height="630" fill="url(#bg)"/>

  <!-- 5-category grid of tool cards -->
  <!-- Row 1 -->
  <rect x="80" y="80" width="200" height="120" rx="16" fill="white" filter="url(#shadow)"/>
  <rect x="80" y="80" width="200" height="32" rx="16" fill="#7F77DD" opacity="0.85"/>
  <rect x="80" y="100" width="200" height="12" fill="#7F77DD" opacity="0.85"/>
  <rect x="96" y="128" width="160" height="8" rx="4" fill="#9CA3AF" opacity="0.4"/>
  <rect x="96" y="142" width="140" height="7" rx="3" fill="#9CA3AF" opacity="0.3"/>
  <rect x="96" y="155" width="120" height="7" rx="3" fill="#9CA3AF" opacity="0.25"/>
  <rect x="96" y="168" width="80" height="18" rx="9" fill="#7F77DD" opacity="0.12"/>

  <rect x="300" y="80" width="200" height="120" rx="16" fill="white" filter="url(#shadow)"/>
  <rect x="300" y="80" width="200" height="32" rx="16" fill="#A78BFA" opacity="0.8"/>
  <rect x="300" y="100" width="200" height="12" fill="#A78BFA" opacity="0.8"/>
  <rect x="316" y="128" width="150" height="8" rx="4" fill="#9CA3AF" opacity="0.4"/>
  <rect x="316" y="142" width="130" height="7" rx="3" fill="#9CA3AF" opacity="0.3"/>
  <rect x="316" y="155" width="110" height="7" rx="3" fill="#9CA3AF" opacity="0.25"/>
  <rect x="316" y="168" width="80" height="18" rx="9" fill="#A78BFA" opacity="0.12"/>

  <rect x="520" y="80" width="200" height="120" rx="16" fill="white" filter="url(#shadow)"/>
  <rect x="520" y="80" width="200" height="32" rx="16" fill="#10B981" opacity="0.75"/>
  <rect x="520" y="100" width="200" height="12" fill="#10B981" opacity="0.75"/>
  <rect x="536" y="128" width="160" height="8" rx="4" fill="#9CA3AF" opacity="0.4"/>
  <rect x="536" y="142" width="130" height="7" rx="3" fill="#9CA3AF" opacity="0.3"/>
  <rect x="536" y="155" width="120" height="7" rx="3" fill="#9CA3AF" opacity="0.25"/>
  <rect x="536" y="168" width="80" height="18" rx="9" fill="#10B981" opacity="0.12"/>

  <rect x="740" y="80" width="200" height="120" rx="16" fill="white" filter="url(#shadow)"/>
  <rect x="740" y="80" width="200" height="32" rx="16" fill="#F59E0B" opacity="0.75"/>
  <rect x="740" y="100" width="200" height="12" fill="#F59E0B" opacity="0.75"/>
  <rect x="756" y="128" width="150" height="8" rx="4" fill="#9CA3AF" opacity="0.4"/>
  <rect x="756" y="142" width="120" height="7" rx="3" fill="#9CA3AF" opacity="0.3"/>
  <rect x="756" y="155" width="110" height="7" rx="3" fill="#9CA3AF" opacity="0.25"/>
  <rect x="756" y="168" width="80" height="18" rx="9" fill="#F59E0B" opacity="0.12"/>

  <rect x="960" y="80" width="180" height="120" rx="16" fill="white" filter="url(#shadow)"/>
  <rect x="960" y="80" width="180" height="32" rx="16" fill="#3B82F6" opacity="0.7"/>
  <rect x="960" y="100" width="180" height="12" fill="#3B82F6" opacity="0.7"/>
  <rect x="976" y="128" width="140" height="8" rx="4" fill="#9CA3AF" opacity="0.4"/>
  <rect x="976" y="142" width="120" height="7" rx="3" fill="#9CA3AF" opacity="0.3"/>
  <rect x="976" y="155" width="100" height="7" rx="3" fill="#9CA3AF" opacity="0.25"/>
  <rect x="976" y="168" width="80" height="18" rx="9" fill="#3B82F6" opacity="0.1"/>

  <!-- Row 2: feature comparison table -->
  <rect x="80" y="240" width="1060" height="200" rx="16" fill="white" filter="url(#shadow)"/>
  <rect x="80" y="240" width="1060" height="36" rx="16" fill="#7F77DD" opacity="0.07"/>
  <rect x="96" y="252" width="120" height="8" rx="4" fill="#7F77DD" opacity="0.45"/>

  <!-- Table rows -->
  <rect x="80" y="290" width="1060" height="1" fill="#F3F4F6"/>
  <rect x="96" y="298" width="140" height="7" rx="3" fill="#9CA3AF" opacity="0.4"/>
  <circle cx="396" cy="301" r="8" fill="#10B981" opacity="0.65"/>
  <circle cx="596" cy="301" r="8" fill="#10B981" opacity="0.65"/>
  <circle cx="796" cy="301" r="8" fill="none" stroke="#D1D5DB" stroke-width="2"/>
  <circle cx="996" cy="301" r="8" fill="#10B981" opacity="0.65"/>

  <rect x="80" y="322" width="1060" height="1" fill="#F3F4F6"/>
  <rect x="96" y="330" width="160" height="7" rx="3" fill="#9CA3AF" opacity="0.38"/>
  <circle cx="396" cy="333" r="8" fill="#10B981" opacity="0.65"/>
  <circle cx="596" cy="333" r="8" fill="none" stroke="#D1D5DB" stroke-width="2"/>
  <circle cx="796" cy="333" r="8" fill="#10B981" opacity="0.65"/>
  <circle cx="996" cy="333" r="8" fill="#10B981" opacity="0.65"/>

  <rect x="80" y="354" width="1060" height="1" fill="#F3F4F6"/>
  <rect x="96" y="362" width="130" height="7" rx="3" fill="#9CA3AF" opacity="0.35"/>
  <circle cx="396" cy="365" r="8" fill="none" stroke="#D1D5DB" stroke-width="2"/>
  <circle cx="596" cy="365" r="8" fill="#10B981" opacity="0.65"/>
  <circle cx="796" cy="365" r="8" fill="#10B981" opacity="0.65"/>
  <circle cx="996" cy="365" r="8" fill="none" stroke="#D1D5DB" stroke-width="2"/>

  <rect x="80" y="386" width="1060" height="1" fill="#F3F4F6"/>
  <rect x="96" y="394" width="150" height="7" rx="3" fill="#9CA3AF" opacity="0.35"/>
  <circle cx="396" cy="397" r="8" fill="#10B981" opacity="0.65"/>
  <circle cx="596" cy="397" r="8" fill="#F59E0B" opacity="0.6"/>
  <circle cx="796" cy="397" r="8" fill="#10B981" opacity="0.65"/>
  <circle cx="996" cy="397" r="8" fill="none" stroke="#D1D5DB" stroke-width="2"/>

  <!-- Row 3: recommendation pill -->
  <rect x="80" y="472" width="1060" height="98" rx="16" fill="white" filter="url(#shadow)"/>
  <rect x="80" y="472" width="6" height="98" rx="3" fill="#7F77DD" opacity="0.6"/>
  <rect x="100" y="488" width="140" height="9" rx="4" fill="#7F77DD" opacity="0.5"/>
  <rect x="100" y="504" width="800" height="7" rx="3" fill="#9CA3AF" opacity="0.32"/>
  <rect x="100" y="517" width="700" height="7" rx="3" fill="#9CA3AF" opacity="0.25"/>
  <rect x="100" y="540" width="120" height="20" rx="10" fill="#7F77DD" opacity="0.12" stroke="#7F77DD" stroke-width="1" stroke-opacity="0.3"/>
  <rect x="232" y="540" width="120" height="20" rx="10" fill="#A78BFA" opacity="0.1" stroke="#A78BFA" stroke-width="1" stroke-opacity="0.25"/>
  <rect x="364" y="540" width="120" height="20" rx="10" fill="#10B981" opacity="0.1" stroke="#10B981" stroke-width="1" stroke-opacity="0.25"/>

  <circle cx="60" cy="560" r="45" fill="#7F77DD" opacity="0.04"/>
  <circle cx="1150" cy="90" r="40" fill="#A78BFA" opacity="0.05"/>
</svg>
