<svg viewBox="0 0 1200 630" xmlns="http://www.w3.org/2000/svg">
  <defs>
    <linearGradient id="bg" x1="0" y1="0" x2="0" y2="1">
      <stop offset="0%" stop-color="#F5F3FF"/>
      <stop offset="100%" stop-color="#EDE9FE"/>
    </linearGradient>
    <filter id="shadow">
      <feDropShadow dx="0" dy="8" stdDeviation="16" flood-color="#7F77DD" flood-opacity="0.11"/>
    </filter>
  </defs>
  <rect width="1200" height="630" fill="url(#bg)"/>

  <!-- Before / After split -->
  <!-- Before: manual PRD -->
  <rect x="60" y="60" width="490" height="510" rx="20" fill="white" filter="url(#shadow)"/>
  <rect x="60" y="60" width="490" height="52" rx="20" fill="#9CA3AF" opacity="0.5"/>
  <rect x="60" y="94" width="490" height="18" fill="#9CA3AF" opacity="0.5"/>
  <rect x="88" y="76" width="80" height="10" rx="5" fill="white" opacity="0.7"/>

  <!-- Time bar: long -->
  <rect x="80" y="140" width="450" height="24" rx="12" fill="#F3F4F6"/>
  <rect x="80" y="140" width="430" height="24" rx="12" fill="#EF4444" opacity="0.2"/>
  <rect x="88" y="147" width="200" height="8" rx="4" fill="#EF4444" opacity="0.35"/>

  <rect x="80" y="180" width="450" height="60" rx="10" fill="#F9FAFB" stroke="#E5E7EB" stroke-width="1"/>
  <rect x="96" y="192" width="100" height="8" rx="4" fill="#9CA3AF" opacity="0.45"/>
  <rect x="96" y="207" width="350" height="6" rx="3" fill="#9CA3AF" opacity="0.28"/>
  <rect x="96" y="219" width="300" height="6" rx="3" fill="#9CA3AF" opacity="0.22"/>

  <rect x="80" y="254" width="450" height="60" rx="10" fill="#F9FAFB" stroke="#E5E7EB" stroke-width="1"/>
  <rect x="96" y="266" width="120" height="8" rx="4" fill="#9CA3AF" opacity="0.4"/>
  <rect x="96" y="281" width="340" height="6" rx="3" fill="#9CA3AF" opacity="0.25"/>
  <rect x="96" y="293" width="280" height="6" rx="3" fill="#9CA3AF" opacity="0.2"/>

  <rect x="80" y="328" width="450" height="60" rx="10" fill="#F9FAFB" stroke="#E5E7EB" stroke-width="1"/>
  <rect x="96" y="340" width="90" height="8" rx="4" fill="#9CA3AF" opacity="0.38"/>
  <rect x="96" y="355" width="360" height="6" rx="3" fill="#9CA3AF" opacity="0.25"/>
  <rect x="96" y="367" width="300" height="6" rx="3" fill="#9CA3AF" opacity="0.2"/>

  <!-- Hours indicator -->
  <rect x="80" y="420" width="200" height="32" rx="16" fill="#FFF1F2" stroke="#FECDD3" stroke-width="1"/>
  <rect x="96" y="430" width="140" height="10" rx="5" fill="#EF4444" opacity="0.45"/>

  <!-- Arrow -->
  <polygon points="590,295 620,315 590,335" fill="#7F77DD" opacity="0.4"/>

  <!-- After: AI PRD -->
  <rect x="650" y="60" width="490" height="510" rx="20" fill="white" filter="url(#shadow)"/>
  <rect x="650" y="60" width="490" height="52" rx="20" fill="#7F77DD"/>
  <rect x="650" y="94" width="490" height="18" fill="#7F77DD"/>
  <rect x="678" y="76" width="80" height="10" rx="5" fill="white" opacity="0.65"/>

  <!-- Time bar: short -->
  <rect x="670" y="140" width="450" height="24" rx="12" fill="#F3F4F6"/>
  <rect x="670" y="140" width="110" height="24" rx="12" fill="#10B981" opacity="0.25"/>
  <rect x="678" y="147" width="90" height="8" rx="4" fill="#10B981" opacity="0.5"/>

  <!-- AI-generated sections with evidence tags -->
  <rect x="670" y="180" width="450" height="60" rx="10" fill="#F5F3FF" stroke="#DDD6FE" stroke-width="1"/>
  <rect x="686" y="192" width="100" height="8" rx="4" fill="#7F77DD" opacity="0.5"/>
  <rect x="686" y="207" width="350" height="6" rx="3" fill="#9CA3AF" opacity="0.32"/>
  <rect x="686" y="219" width="300" height="6" rx="3" fill="#9CA3AF" opacity="0.25"/>
  <!-- evidence tag -->
  <rect x="1046" y="186" width="74" height="16" rx="8" fill="#7F77DD" opacity="0.12"/>

  <rect x="670" y="254" width="450" height="60" rx="10" fill="#F5F3FF" stroke="#DDD6FE" stroke-width="1"/>
  <rect x="686" y="266" width="120" height="8" rx="4" fill="#7F77DD" opacity="0.5"/>
  <rect x="686" y="281" width="340" height="6" rx="3" fill="#9CA3AF" opacity="0.3"/>
  <rect x="686" y="293" width="280" height="6" rx="3" fill="#9CA3AF" opacity="0.24"/>
  <rect x="1046" y="260" width="74" height="16" rx="8" fill="#7F77DD" opacity="0.12"/>

  <rect x="670" y="328" width="450" height="60" rx="10" fill="#F5F3FF" stroke="#DDD6FE" stroke-width="1"/>
  <rect x="686" y="340" width="90" height="8" rx="4" fill="#7F77DD" opacity="0.45"/>
  <rect x="686" y="355" width="360" height="6" rx="3" fill="#9CA3AF" opacity="0.28"/>
  <rect x="686" y="367" width="300" height="6" rx="3" fill="#9CA3AF" opacity="0.22"/>
  <rect x="1046" y="334" width="74" height="16" rx="8" fill="#7F77DD" opacity="0.12"/>

  <!-- Minutes indicator -->
  <rect x="670" y="420" width="180" height="32" rx="16" fill="#F0FDF4" stroke="#A7F3D0" stroke-width="1"/>
  <rect x="686" y="430" width="130" height="10" rx="5" fill="#10B981" opacity="0.55"/>

  <!-- Improvement badge -->
  <rect x="670" y="470" width="440" height="60" rx="12" fill="#7F77DD" opacity="0.06" stroke="#DDD6FE" stroke-width="1"/>
  <rect x="690" y="490" width="160" height="8" rx="4" fill="#7F77DD" opacity="0.4"/>
  <rect x="870" y="490" width="120" height="8" rx="4" fill="#9CA3AF" opacity="0.28"/>

  <circle cx="60" cy="560" r="45" fill="#7F77DD" opacity="0.04"/>
  <circle cx="1150" cy="90" r="40" fill="#A78BFA" opacity="0.05"/>
</svg>
