<svg viewBox="0 0 1200 630" xmlns="http://www.w3.org/2000/svg">
  <defs>
    <linearGradient id="bg" x1="0" y1="0" x2="0" y2="1">
      <stop offset="0%" stop-color="#F5F3FF"/>
      <stop offset="100%" stop-color="#EDE9FE"/>
    </linearGradient>
    <filter id="shadow">
      <feDropShadow dx="0" dy="8" stdDeviation="16" flood-color="#7F77DD" flood-opacity="0.11"/>
    </filter>
  </defs>
  <rect width="1200" height="630" fill="url(#bg)"/>

  <!-- Raw feedback left pile -->
  <rect x="60" y="80" width="320" height="470" rx="20" fill="white" filter="url(#shadow)"/>
  <rect x="60" y="80" width="320" height="52" rx="20" fill="#9CA3AF" opacity="0.45"/>
  <rect x="60" y="114" width="320" height="18" fill="#9CA3AF" opacity="0.45"/>
  <rect x="82" y="96" width="80" height="10" rx="5" fill="white" opacity="0.7"/>

  <!-- Raw items: survey, ticket, interview note -->
  <rect x="80" y="152" width="280" height="64" rx="10" fill="#FFF7ED" stroke="#FDE68A" stroke-width="1"/>
  <rect x="96" y="163" width="80" height="8" rx="4" fill="#F59E0B" opacity="0.5"/>
  <rect x="96" y="177" width="240" height="6" rx="3" fill="#9CA3AF" opacity="0.32"/>
  <rect x="96" y="189" width="200" height="6" rx="3" fill="#9CA3AF" opacity="0.25"/>
  <rect x="96" y="201" width="220" height="6" rx="3" fill="#9CA3AF" opacity="0.2"/>

  <rect x="80" y="228" width="280" height="64" rx="10" fill="#EFF6FF" stroke="#BFDBFE" stroke-width="1"/>
  <rect x="96" y="239" width="90" height="8" rx="4" fill="#3B82F6" opacity="0.5"/>
  <rect x="96" y="253" width="240" height="6" rx="3" fill="#9CA3AF" opacity="0.3"/>
  <rect x="96" y="265" width="180" height="6" rx="3" fill="#9CA3AF" opacity="0.24"/>
  <rect x="96" y="277" width="220" height="6" rx="3" fill="#9CA3AF" opacity="0.18"/>

  <rect x="80" y="304" width="280" height="64" rx="10" fill="#F5F3FF" stroke="#DDD6FE" stroke-width="1"/>
  <rect x="96" y="315" width="100" height="8" rx="4" fill="#7F77DD" opacity="0.45"/>
  <rect x="96" y="329" width="240" height="6" rx="3" fill="#9CA3AF" opacity="0.3"/>
  <rect x="96" y="341" width="190" height="6" rx="3" fill="#9CA3AF" opacity="0.24"/>
  <rect x="96" y="353" width="210" height="6" rx="3" fill="#9CA3AF" opacity="0.18"/>

  <rect x="80" y="380" width="280" height="50" rx="10" fill="#F9FAFB" stroke="#E5E7EB" stroke-width="1"/>
  <rect x="96" y="391" width="70" height="8" rx="4" fill="#9CA3AF" opacity="0.4"/>
  <rect x="96" y="405" width="240" height="6" rx="3" fill="#9CA3AF" opacity="0.25"/>
  <rect x="96" y="417" width="190" height="6" rx="3" fill="#9CA3AF" opacity="0.2"/>

  <rect x="80" y="442" width="280" height="50" rx="10" fill="#F9FAFB" stroke="#E5E7EB" stroke-width="1"/>
  <rect x="96" y="453" width="80" height="8" rx="4" fill="#9CA3AF" opacity="0.35"/>
  <rect x="96" y="467" width="200" height="6" rx="3" fill="#9CA3AF" opacity="0.22"/>
  <rect x="96" y="479" width="170" height="6" rx="3" fill="#9CA3AF" opacity="0.18"/>

  <!-- AI processing arrow -->
  <rect x="410" y="290" width="80" height="50" rx="12" fill="white" filter="url(#shadow)"/>
  <rect x="416" y="296" width="68" height="38" rx="8" fill="#7F77DD" opacity="0.1"/>
  <rect x="426" y="304" width="48" height="8" rx="4" fill="#7F77DD" opacity="0.5"/>
  <rect x="430" y="318" width="40" height="6" rx="3" fill="#7F77DD" opacity="0.35"/>
  <polygon points="490,315 510,315 500,300" fill="#7F77DD" opacity="0.35"/>
  <polygon points="490,315 510,315 500,330" fill="#7F77DD" opacity="0.35"/>

  <!-- Structured output right panel -->
  <rect x="530" y="80" width="610" height="470" rx="20" fill="white" filter="url(#shadow)"/>
  <rect x="530" y="80" width="610" height="52" rx="20" fill="#7F77DD"/>
  <rect x="530" y="114" width="610" height="18" fill="#7F77DD"/>
  <rect x="558" y="96" width="120" height="10" rx="5" fill="white" opacity="0.65"/>

  <!-- Theme bars -->
  <rect x="550" y="160" width="100" height="8" rx="4" fill="#7F77DD" opacity="0.4"/>

  <rect x="550" y="178" width="570" height="28" rx="6" fill="#F5F3FF"/>
  <rect x="550" y="178" width="380" height="28" rx="6" fill="#7F77DD" opacity="0.25"/>
  <rect x="556" y="186" width="80" height="8" rx="4" fill="#7F77DD" opacity="0.5"/>
  <rect x="920" y="186" width="60" height="8" rx="4" fill="#7F77DD" opacity="0.35"/>

  <rect x="550" y="216" width="570" height="28" rx="6" fill="#F5F3FF"/>
  <rect x="550" y="216" width="300" height="28" rx="6" fill="#7F77DD" opacity="0.18"/>
  <rect x="556" y="224" width="80" height="8" rx="4" fill="#7F77DD" opacity="0.45"/>
  <rect x="920" y="224" width="60" height="8" rx="4" fill="#7F77DD" opacity="0.3"/>

  <rect x="550" y="254" width="570" height="28" rx="6" fill="#F5F3FF"/>
  <rect x="550" y="254" width="220" height="28" rx="6" fill="#A78BFA" opacity="0.18"/>
  <rect x="556" y="262" width="80" height="8" rx="4" fill="#A78BFA" opacity="0.5"/>
  <rect x="920" y="262" width="60" height="8" rx="4" fill="#A78BFA" opacity="0.3"/>

  <rect x="550" y="292" width="570" height="28" rx="6" fill="#F5F3FF"/>
  <rect x="550" y="292" width="160" height="28" rx="6" fill="#10B981" opacity="0.15"/>
  <rect x="556" y="300" width="80" height="8" rx="4" fill="#10B981" opacity="0.5"/>
  <rect x="920" y="300" width="60" height="8" rx="4" fill="#10B981" opacity="0.3"/>

  <!-- Pain points section -->
  <rect x="550" y="346" width="100" height="8" rx="4" fill="#7F77DD" opacity="0.4"/>

  <rect x="550" y="364" width="570" height="50" rx="10" fill="#FFF1F2" stroke="#FECDD3" stroke-width="1"/>
  <rect x="566" y="375" width="140" height="7" rx="3" fill="#EF4444" opacity="0.4"/>
  <rect x="566" y="388" width="420" height="6" rx="3" fill="#9CA3AF" opacity="0.28"/>
  <rect x="566" y="400" width="360" height="6" rx="3" fill="#9CA3AF" opacity="0.22"/>

  <rect x="550" y="424" width="570" height="50" rx="10" fill="#FFF1F2" stroke="#FECDD3" stroke-width="1"/>
  <rect x="566" y="435" width="120" height="7" rx="3" fill="#EF4444" opacity="0.35"/>
  <rect x="566" y="448" width="400" height="6" rx="3" fill="#9CA3AF" opacity="0.25"/>
  <rect x="566" y="460" width="320" height="6" rx="3" fill="#9CA3AF" opacity="0.2"/>

  <!-- Feature requests -->
  <rect x="550" y="490" width="570" height="44" rx="10" fill="#F0FDF4" stroke="#A7F3D0" stroke-width="1"/>
  <rect x="566" y="501" width="110" height="7" rx="3" fill="#10B981" opacity="0.5"/>
  <rect x="566" y="514" width="420" height="6" rx="3" fill="#9CA3AF" opacity="0.25"/>
  <rect x="566" y="522" width="360" height="6" rx="3" fill="#9CA3AF" opacity="0.2"/>

  <circle cx="60" cy="560" r="45" fill="#7F77DD" opacity="0.04"/>
  <circle cx="1150" cy="90" r="40" fill="#A78BFA" opacity="0.05"/>
</svg>
