<svg viewBox="0 0 1200 630" xmlns="http://www.w3.org/2000/svg">
  <defs>
    <linearGradient id="bg" x1="0" y1="0" x2="0" y2="1">
      <stop offset="0%" stop-color="#F5F3FF"/>
      <stop offset="100%" stop-color="#EDE9FE"/>
    </linearGradient>
    <filter id="shadow">
      <feDropShadow dx="0" dy="8" stdDeviation="18" flood-color="#7F77DD" flood-opacity="0.12"/>
    </filter>
  </defs>
  <rect width="1200" height="630" fill="url(#bg)"/>

  <!-- Left: messy pile (before) -->
  <rect x="80" y="80" width="420" height="470" rx="20" fill="white" filter="url(#shadow)"/>
  <rect x="80" y="80" width="420" height="52" rx="20" fill="#9CA3AF" opacity="0.5"/>
  <rect x="80" y="114" width="420" height="18" fill="#9CA3AF" opacity="0.5"/>
  <rect x="108" y="97" width="80" height="9" rx="4" fill="white" opacity="0.55"/>
  <rect x="196" y="99" width="50" height="6" rx="3" fill="white" opacity="0.3"/>

  <!-- Random disordered items -->
  <rect x="100" y="152" width="380" height="36" rx="8" fill="#F9FAFB" stroke="#E5E7EB" stroke-width="1"/>
  <rect x="116" y="164" width="180" height="8" rx="4" fill="#9CA3AF" opacity="0.4"/>
  <rect x="116" y="178" width="120" height="6" rx="3" fill="#9CA3AF" opacity="0.25"/>

  <rect x="100" y="198" width="380" height="36" rx="8" fill="#F9FAFB" stroke="#E5E7EB" stroke-width="1"/>
  <rect x="116" y="210" width="220" height="8" rx="4" fill="#9CA3AF" opacity="0.35"/>
  <rect x="116" y="224" width="160" height="6" rx="3" fill="#9CA3AF" opacity="0.22"/>

  <!-- "priority" badges scattered randomly — no order -->
  <rect x="426" y="154" width="36" height="16" rx="8" fill="#EF4444" opacity="0.3"/>
  <rect x="430" y="158" width="28" height="8" rx="4" fill="#EF4444" opacity="0.45"/>
  <rect x="426" y="200" width="36" height="16" rx="8" fill="#EF4444" opacity="0.3"/>
  <rect x="430" y="204" width="28" height="8" rx="4" fill="#EF4444" opacity="0.45"/>

  <rect x="100" y="244" width="380" height="36" rx="8" fill="#FFF7ED" stroke="#FED7AA" stroke-width="1"/>
  <rect x="116" y="256" width="160" height="8" rx="4" fill="#9CA3AF" opacity="0.35"/>
  <rect x="116" y="270" width="100" height="6" rx="3" fill="#9CA3AF" opacity="0.22"/>
  <rect x="426" y="246" width="36" height="16" rx="8" fill="#F59E0B" opacity="0.35"/>

  <rect x="100" y="290" width="380" height="36" rx="8" fill="#F9FAFB" stroke="#E5E7EB" stroke-width="1"/>
  <rect x="116" y="302" width="240" height="8" rx="4" fill="#9CA3AF" opacity="0.3"/>
  <rect x="426" y="292" width="36" height="16" rx="8" fill="#EF4444" opacity="0.25"/>

  <rect x="100" y="336" width="380" height="36" rx="8" fill="#F9FAFB" stroke="#E5E7EB" stroke-width="1"/>
  <rect x="116" y="348" width="190" height="8" rx="4" fill="#9CA3AF" opacity="0.28"/>
  <rect x="426" y="338" width="36" height="16" rx="8" fill="#F59E0B" opacity="0.3"/>

  <rect x="100" y="382" width="380" height="36" rx="8" fill="#F9FAFB" stroke="#E5E7EB" stroke-width="1"/>
  <rect x="116" y="394" width="150" height="8" rx="4" fill="#9CA3AF" opacity="0.25"/>

  <rect x="100" y="428" width="380" height="36" rx="8" fill="#FFF7ED" stroke="#FED7AA" stroke-width="1"/>
  <rect x="116" y="440" width="200" height="8" rx="4" fill="#9CA3AF" opacity="0.3"/>
  <rect x="426" y="430" width="36" height="16" rx="8" fill="#EF4444" opacity="0.28"/>

  <rect x="100" y="474" width="380" height="36" rx="8" fill="#F9FAFB" stroke="#E5E7EB" stroke-width="1"/>
  <rect x="116" y="486" width="170" height="8" rx="4" fill="#9CA3AF" opacity="0.22"/>

  <!-- Count badge: 200+ -->
  <rect x="132" y="520" width="60" height="20" rx="10" fill="#E5E7EB"/>
  <rect x="140" y="525" width="44" height="10" rx="5" fill="#9CA3AF" opacity="0.5"/>

  <!-- Arrow in the middle -->
  <line x1="540" y1="315" x2="620" y2="315" stroke="#7F77DD" stroke-width="3" opacity="0.4"/>
  <polygon points="620,307 638,315 620,323" fill="#7F77DD" opacity="0.4"/>

  <!-- Right: prioritized list (after) -->
  <rect x="660" y="80" width="460" height="470" rx="20" fill="white" filter="url(#shadow)"/>
  <rect x="660" y="80" width="460" height="52" rx="20" fill="#7F77DD"/>
  <rect x="660" y="114" width="460" height="18" fill="#7F77DD"/>
  <rect x="690" y="97" width="90" height="9" rx="4" fill="white" opacity="0.6"/>

  <!-- #1 top priority (large, featured) -->
  <rect x="678" y="152" width="424" height="56" rx="10" fill="#F5F3FF" stroke="#DDD6FE" stroke-width="1.5"/>
  <!-- Rank badge -->
  <rect x="678" y="152" width="36" height="56" rx="10" fill="#7F77DD" opacity="0.75"/>
  <rect x="684" y="174" width="24" height="12" rx="6" fill="white" opacity="0.8"/>
  <!-- content -->
  <rect x="726" y="165" width="200" height="9" rx="4" fill="#7F77DD" opacity="0.55"/>
  <rect x="726" y="181" width="280" height="7" rx="3" fill="#9CA3AF" opacity="0.35"/>
  <rect x="726" y="194" width="240" height="7" rx="3" fill="#9CA3AF" opacity="0.28"/>
  <!-- customer evidence pill -->
  <rect x="920" y="162" width="60" height="18" rx="9" fill="#7F77DD" opacity="0.15"/>
  <rect x="926" y="166" width="48" height="10" rx="5" fill="#7F77DD" opacity="0.4"/>

  <!-- #2 -->
  <rect x="678" y="220" width="424" height="46" rx="10" fill="#F9FAFB" stroke="#E5E7EB" stroke-width="1"/>
  <rect x="678" y="220" width="36" height="46" rx="10" fill="#7F77DD" opacity="0.55"/>
  <rect x="684" y="238" width="24" height="12" rx="6" fill="white" opacity="0.6"/>
  <rect x="726" y="232" width="180" height="8" rx="4" fill="#7F77DD" opacity="0.4"/>
  <rect x="726" y="246" width="260" height="6" rx="3" fill="#9CA3AF" opacity="0.3"/>
  <rect x="920" y="228" width="60" height="18" rx="9" fill="#7F77DD" opacity="0.12"/>
  <rect x="926" y="232" width="48" height="10" rx="5" fill="#7F77DD" opacity="0.3"/>

  <!-- #3 -->
  <rect x="678" y="278" width="424" height="46" rx="10" fill="#F9FAFB" stroke="#E5E7EB" stroke-width="1"/>
  <rect x="678" y="278" width="36" height="46" rx="10" fill="#7F77DD" opacity="0.4"/>
  <rect x="684" y="296" width="24" height="12" rx="6" fill="white" opacity="0.5"/>
  <rect x="726" y="290" width="160" height="8" rx="4" fill="#7F77DD" opacity="0.35"/>
  <rect x="726" y="304" width="220" height="6" rx="3" fill="#9CA3AF" opacity="0.28"/>
  <rect x="920" y="286" width="60" height="18" rx="9" fill="#7F77DD" opacity="0.1"/>
  <rect x="926" y="290" width="48" height="10" rx="5" fill="#7F77DD" opacity="0.25"/>

  <!-- #4–#7 (smaller) -->
  <rect x="678" y="336" width="424" height="36" rx="8" fill="#F9FAFB" stroke="#E5E7EB" stroke-width="1"/>
  <rect x="678" y="336" width="36" height="36" rx="8" fill="#A78BFA" opacity="0.3"/>
  <rect x="684" y="350" width="24" height="10" rx="5" fill="white" opacity="0.5"/>
  <rect x="726" y="348" width="200" height="7" rx="3" fill="#9CA3AF" opacity="0.35"/>

  <rect x="678" y="382" width="424" height="36" rx="8" fill="#F9FAFB" stroke="#E5E7EB" stroke-width="1"/>
  <rect x="678" y="382" width="36" height="36" rx="8" fill="#A78BFA" opacity="0.22"/>
  <rect x="684" y="396" width="24" height="10" rx="5" fill="white" opacity="0.4"/>
  <rect x="726" y="394" width="170" height="7" rx="3" fill="#9CA3AF" opacity="0.3"/>

  <rect x="678" y="428" width="424" height="36" rx="8" fill="#F9FAFB" stroke="#E5E7EB" stroke-width="1"/>
  <rect x="678" y="428" width="36" height="36" rx="8" fill="#D1D5DB" opacity="0.4"/>
  <rect x="684" y="442" width="24" height="10" rx="5" fill="white" opacity="0.4"/>
  <rect x="726" y="440" width="150" height="7" rx="3" fill="#9CA3AF" opacity="0.25"/>

  <rect x="678" y="474" width="424" height="36" rx="8" fill="#F9FAFB" stroke="#E5E7EB" stroke-width="1"/>
  <rect x="678" y="474" width="36" height="36" rx="8" fill="#D1D5DB" opacity="0.3"/>
  <rect x="684" y="488" width="24" height="10" rx="5" fill="white" opacity="0.35"/>
  <rect x="726" y="486" width="180" height="7" rx="3" fill="#9CA3AF" opacity="0.22"/>

  <!-- Count badge: 10 key items -->
  <rect x="820" y="520" width="60" height="20" rx="10" fill="#7F77DD" opacity="0.12"/>
  <rect x="828" y="525" width="44" height="10" rx="5" fill="#7F77DD" opacity="0.4"/>

  <!-- Decorative -->
  <circle cx="60" cy="560" r="45" fill="#7F77DD" opacity="0.04"/>
  <circle cx="1140" cy="90" r="40" fill="#A78BFA" opacity="0.05"/>
</svg>
