<svg viewBox="0 0 1200 630" xmlns="http://www.w3.org/2000/svg">
  <defs>
    <linearGradient id="bg" x1="0" y1="0" x2="0" y2="1">
      <stop offset="0%" stop-color="#F5F3FF"/>
      <stop offset="100%" stop-color="#EDE9FE"/>
    </linearGradient>
    <filter id="shadow">
      <feDropShadow dx="0" dy="8" stdDeviation="16" flood-color="#7F77DD" flood-opacity="0.11"/>
    </filter>
  </defs>
  <rect width="1200" height="630" fill="url(#bg)"/>

  <!-- Comparison table card -->
  <rect x="80" y="70" width="1040" height="490" rx="20" fill="white" filter="url(#shadow)"/>

  <!-- Header row -->
  <rect x="80" y="70" width="1040" height="52" rx="20" fill="#7F77DD"/>
  <rect x="80" y="104" width="1040" height="18" fill="#7F77DD"/>

  <!-- Column header: Us (highlighted) -->
  <rect x="360" y="80" width="190" height="32" rx="8" fill="white" opacity="0.2"/>
  <rect x="375" y="89" width="80" height="10" rx="5" fill="white" opacity="0.75"/>
  <!-- Competitor A -->
  <rect x="565" y="89" width="70" height="10" rx="5" fill="white" opacity="0.4"/>
  <!-- Competitor B -->
  <rect x="765" y="89" width="70" height="10" rx="5" fill="white" opacity="0.4"/>
  <!-- Competitor C -->
  <rect x="960" y="89" width="70" height="10" rx="5" fill="white" opacity="0.4"/>

  <!-- Row labels (feature names) -->
  <rect x="100" y="150" width="120" height="9" rx="4" fill="#9CA3AF" opacity="0.5"/>
  <rect x="100" y="193" width="100" height="9" rx="4" fill="#9CA3AF" opacity="0.5"/>
  <rect x="100" y="236" width="140" height="9" rx="4" fill="#9CA3AF" opacity="0.5"/>
  <rect x="100" y="279" width="110" height="9" rx="4" fill="#9CA3AF" opacity="0.5"/>
  <rect x="100" y="322" width="130" height="9" rx="4" fill="#9CA3AF" opacity="0.5"/>
  <rect x="100" y="365" width="90" height="9" rx="4" fill="#9CA3AF" opacity="0.5"/>
  <rect x="100" y="408" width="120" height="9" rx="4" fill="#9CA3AF" opacity="0.5"/>
  <rect x="100" y="451" width="100" height="9" rx="4" fill="#9CA3AF" opacity="0.5"/>

  <!-- Column: Us — mostly green checks -->
  <!-- Check marks (our column, highlighted) -->
  <rect x="360" y="136" width="190" height="34" rx="6" fill="#F5F3FF"/>
  <circle cx="455" cy="153" r="10" fill="#7F77DD" opacity="0.75"/>
  <path d="M449 153 l3 3 l7-7" stroke="white" stroke-width="2" fill="none" stroke-linecap="round" stroke-linejoin="round"/>
  <rect x="360" y="179" width="190" height="34" rx="6" fill="#F5F3FF"/>
  <circle cx="455" cy="196" r="10" fill="#7F77DD" opacity="0.75"/>
  <path d="M449 196 l3 3 l7-7" stroke="white" stroke-width="2" fill="none" stroke-linecap="round" stroke-linejoin="round"/>
  <rect x="360" y="222" width="190" height="34" rx="6" fill="#F5F3FF"/>
  <circle cx="455" cy="239" r="10" fill="#7F77DD" opacity="0.75"/>
  <path d="M449 239 l3 3 l7-7" stroke="white" stroke-width="2" fill="none" stroke-linecap="round" stroke-linejoin="round"/>
  <rect x="360" y="265" width="190" height="34" rx="6" fill="#F5F3FF"/>
  <circle cx="455" cy="282" r="10" fill="#7F77DD" opacity="0.75"/>
  <path d="M449 282 l3 3 l7-7" stroke="white" stroke-width="2" fill="none" stroke-linecap="round" stroke-linejoin="round"/>
  <rect x="360" y="308" width="190" height="34" rx="6" fill="#F5F3FF"/>
  <circle cx="455" cy="325" r="10" fill="#7F77DD" opacity="0.75"/>
  <path d="M449 325 l3 3 l7-7" stroke="white" stroke-width="2" fill="none" stroke-linecap="round" stroke-linejoin="round"/>
  <rect x="360" y="351" width="190" height="34" rx="6" fill="#F5F3FF"/>
  <circle cx="455" cy="368" r="10" fill="#7F77DD" opacity="0.75"/>
  <path d="M449 368 l3 3 l7-7" stroke="white" stroke-width="2" fill="none" stroke-linecap="round" stroke-linejoin="round"/>
  <rect x="360" y="394" width="190" height="34" rx="6" fill="#F5F3FF"/>
  <circle cx="455" cy="411" r="10" fill="#7F77DD" opacity="0.6"/>
  <path d="M449 411 l3 3 l7-7" stroke="white" stroke-width="2" fill="none" stroke-linecap="round" stroke-linejoin="round"/>
  <rect x="360" y="437" width="190" height="34" rx="6" fill="#F5F3FF"/>
  <circle cx="455" cy="454" r="10" fill="#7F77DD" opacity="0.75"/>
  <path d="M449 454 l3 3 l7-7" stroke="white" stroke-width="2" fill="none" stroke-linecap="round" stroke-linejoin="round"/>

  <!-- Column: Competitor A -->
  <!-- check -->
  <circle cx="650" cy="153" r="9" fill="#22C55E" opacity="0.3"/>
  <path d="M644 153 l3 3 l6-6" stroke="#22C55E" stroke-width="2" fill="none" stroke-linecap="round" stroke-linejoin="round" opacity="0.7"/>
  <!-- check -->
  <circle cx="650" cy="196" r="9" fill="#22C55E" opacity="0.3"/>
  <path d="M644 196 l3 3 l6-6" stroke="#22C55E" stroke-width="2" fill="none" stroke-linecap="round" stroke-linejoin="round" opacity="0.7"/>
  <!-- partial -->
  <circle cx="650" cy="239" r="9" fill="#F59E0B" opacity="0.3"/>
  <rect x="644" y="235" width="12" height="8" rx="2" fill="#F59E0B" opacity="0.5"/>
  <!-- x -->
  <circle cx="650" cy="282" r="9" fill="#EF4444" opacity="0.2"/>
  <line x1="645" y1="277" x2="655" y2="287" stroke="#EF4444" stroke-width="2" opacity="0.5"/>
  <line x1="655" y1="277" x2="645" y2="287" stroke="#EF4444" stroke-width="2" opacity="0.5"/>
  <!-- check -->
  <circle cx="650" cy="325" r="9" fill="#22C55E" opacity="0.3"/>
  <path d="M644 325 l3 3 l6-6" stroke="#22C55E" stroke-width="2" fill="none" stroke-linecap="round" stroke-linejoin="round" opacity="0.7"/>
  <!-- x -->
  <circle cx="650" cy="368" r="9" fill="#EF4444" opacity="0.2"/>
  <line x1="645" y1="363" x2="655" y2="373" stroke="#EF4444" stroke-width="2" opacity="0.5"/>
  <line x1="655" y1="363" x2="645" y2="373" stroke="#EF4444" stroke-width="2" opacity="0.5"/>
  <!-- x -->
  <circle cx="650" cy="411" r="9" fill="#EF4444" opacity="0.2"/>
  <line x1="645" y1="406" x2="655" y2="416" stroke="#EF4444" stroke-width="2" opacity="0.5"/>
  <line x1="655" y1="406" x2="645" y2="416" stroke="#EF4444" stroke-width="2" opacity="0.5"/>
  <!-- check -->
  <circle cx="650" cy="454" r="9" fill="#22C55E" opacity="0.3"/>
  <path d="M644 454 l3 3 l6-6" stroke="#22C55E" stroke-width="2" fill="none" stroke-linecap="round" stroke-linejoin="round" opacity="0.7"/>

  <!-- Column: Competitor B (similar pattern) -->
  <circle cx="850" cy="153" r="9" fill="#22C55E" opacity="0.3"/>
  <path d="M844 153 l3 3 l6-6" stroke="#22C55E" stroke-width="2" fill="none" stroke-linecap="round" stroke-linejoin="round" opacity="0.7"/>
  <circle cx="850" cy="196" r="9" fill="#EF4444" opacity="0.2"/>
  <line x1="845" y1="191" x2="855" y2="201" stroke="#EF4444" stroke-width="2" opacity="0.5"/>
  <line x1="855" y1="191" x2="845" y2="201" stroke="#EF4444" stroke-width="2" opacity="0.5"/>
  <circle cx="850" cy="239" r="9" fill="#22C55E" opacity="0.3"/>
  <path d="M844 239 l3 3 l6-6" stroke="#22C55E" stroke-width="2" fill="none" stroke-linecap="round" stroke-linejoin="round" opacity="0.7"/>
  <circle cx="850" cy="282" r="9" fill="#22C55E" opacity="0.3"/>
  <path d="M844 282 l3 3 l6-6" stroke="#22C55E" stroke-width="2" fill="none" stroke-linecap="round" stroke-linejoin="round" opacity="0.7"/>
  <circle cx="850" cy="325" r="9" fill="#EF4444" opacity="0.2"/>
  <line x1="845" y1="320" x2="855" y2="330" stroke="#EF4444" stroke-width="2" opacity="0.5"/>
  <line x1="855" y1="320" x2="845" y2="330" stroke="#EF4444" stroke-width="2" opacity="0.5"/>
  <circle cx="850" cy="368" r="9" fill="#F59E0B" opacity="0.3"/>
  <rect x="844" y="364" width="12" height="8" rx="2" fill="#F59E0B" opacity="0.5"/>
  <circle cx="850" cy="411" r="9" fill="#EF4444" opacity="0.2"/>
  <line x1="845" y1="406" x2="855" y2="416" stroke="#EF4444" stroke-width="2" opacity="0.5"/>
  <line x1="855" y1="406" x2="845" y2="416" stroke="#EF4444" stroke-width="2" opacity="0.5"/>
  <circle cx="850" cy="454" r="9" fill="#EF4444" opacity="0.2"/>
  <line x1="845" y1="449" x2="855" y2="459" stroke="#EF4444" stroke-width="2" opacity="0.5"/>
  <line x1="855" y1="449" x2="845" y2="459" stroke="#EF4444" stroke-width="2" opacity="0.5"/>

  <!-- Column: Competitor C -->
  <circle cx="1040" cy="153" r="9" fill="#EF4444" opacity="0.2"/>
  <line x1="1035" y1="148" x2="1045" y2="158" stroke="#EF4444" stroke-width="2" opacity="0.5"/>
  <line x1="1045" y1="148" x2="1035" y2="158" stroke="#EF4444" stroke-width="2" opacity="0.5"/>
  <circle cx="1040" cy="196" r="9" fill="#22C55E" opacity="0.3"/>
  <path d="M1034 196 l3 3 l6-6" stroke="#22C55E" stroke-width="2" fill="none" stroke-linecap="round" stroke-linejoin="round" opacity="0.7"/>
  <circle cx="1040" cy="239" r="9" fill="#EF4444" opacity="0.2"/>
  <line x1="1035" y1="234" x2="1045" y2="244" stroke="#EF4444" stroke-width="2" opacity="0.5"/>
  <line x1="1045" y1="234" x2="1035" y2="244" stroke="#EF4444" stroke-width="2" opacity="0.5"/>
  <circle cx="1040" cy="282" r="9" fill="#EF4444" opacity="0.2"/>
  <line x1="1035" y1="277" x2="1045" y2="287" stroke="#EF4444" stroke-width="2" opacity="0.5"/>
  <line x1="1045" y1="277" x2="1035" y2="287" stroke="#EF4444" stroke-width="2" opacity="0.5"/>
  <circle cx="1040" cy="325" r="9" fill="#22C55E" opacity="0.3"/>
  <path d="M1034 325 l3 3 l6-6" stroke="#22C55E" stroke-width="2" fill="none" stroke-linecap="round" stroke-linejoin="round" opacity="0.7"/>
  <circle cx="1040" cy="368" r="9" fill="#EF4444" opacity="0.2"/>
  <line x1="1035" y1="363" x2="1045" y2="373" stroke="#EF4444" stroke-width="2" opacity="0.5"/>
  <line x1="1045" y1="363" x2="1035" y2="373" stroke="#EF4444" stroke-width="2" opacity="0.5"/>
  <circle cx="1040" cy="411" r="9" fill="#F59E0B" opacity="0.3"/>
  <rect x="1034" y="407" width="12" height="8" rx="2" fill="#F59E0B" opacity="0.5"/>
  <circle cx="1040" cy="454" r="9" fill="#EF4444" opacity="0.2"/>
  <line x1="1035" y1="449" x2="1045" y2="459" stroke="#EF4444" stroke-width="2" opacity="0.5"/>
  <line x1="1045" y1="449" x2="1035" y2="459" stroke="#EF4444" stroke-width="2" opacity="0.5"/>

  <!-- Grid lines -->
  <line x1="80" y1="170" x2="1120" y2="170" stroke="#F3F4F6" stroke-width="1"/>
  <line x1="80" y1="213" x2="1120" y2="213" stroke="#F3F4F6" stroke-width="1"/>
  <line x1="80" y1="256" x2="1120" y2="256" stroke="#F3F4F6" stroke-width="1"/>
  <line x1="80" y1="299" x2="1120" y2="299" stroke="#F3F4F6" stroke-width="1"/>
  <line x1="80" y1="342" x2="1120" y2="342" stroke="#F3F4F6" stroke-width="1"/>
  <line x1="80" y1="385" x2="1120" y2="385" stroke="#F3F4F6" stroke-width="1"/>
  <line x1="80" y1="428" x2="1120" y2="428" stroke="#F3F4F6" stroke-width="1"/>
  <line x1="350" y1="122" x2="350" y2="540" stroke="#E5E7EB" stroke-width="1"/>

  <!-- Decorative -->
  <circle cx="60" cy="560" r="40" fill="#7F77DD" opacity="0.04"/>
</svg>
