<svg viewBox="0 0 1200 630" xmlns="http://www.w3.org/2000/svg">
  <defs>
    <linearGradient id="bg" x1="0" y1="0" x2="0" y2="1">
      <stop offset="0%" stop-color="#F5F3FF"/>
      <stop offset="100%" stop-color="#EDE9FE"/>
    </linearGradient>
    <filter id="shadow">
      <feDropShadow dx="0" dy="8" stdDeviation="16" flood-color="#7F77DD" flood-opacity="0.11"/>
    </filter>
  </defs>
  <rect width="1200" height="630" fill="url(#bg)"/>

  <!-- Launch phases timeline (horizontal) -->
  <!-- Phase track bar -->
  <rect x="80" y="200" width="1040" height="6" rx="3" fill="#DDD6FE"/>

  <!-- Phase 1: Pre-Launch -->
  <circle cx="200" cy="203" r="16" fill="#7F77DD" opacity="0.85"/>
  <rect x="140" y="230" width="120" height="10" rx="5" fill="#7F77DD" opacity="0.55"/>
  <rect x="120" y="80" width="160" height="100" rx="14" fill="white" filter="url(#shadow)"/>
  <rect x="120" y="80" width="160" height="22" rx="10" fill="#7F77DD" opacity="0.8"/>
  <rect x="120" y="94" width="160" height="8" fill="#7F77DD" opacity="0.8"/>
  <rect x="130" y="116" width="130" height="7" rx="3" fill="#9CA3AF" opacity="0.4"/>
  <rect x="130" y="129" width="110" height="7" rx="3" fill="#9CA3AF" opacity="0.32"/>
  <rect x="130" y="142" width="120" height="7" rx="3" fill="#9CA3AF" opacity="0.28"/>
  <rect x="130" y="155" width="100" height="7" rx="3" fill="#9CA3AF" opacity="0.22"/>
  <line x1="200" y1="180" x2="200" y2="200" stroke="#7F77DD" stroke-width="2" opacity="0.4" stroke-dasharray="4 3"/>

  <!-- Phase 2: Launch Week -->
  <circle cx="460" cy="203" r="16" fill="#7F77DD"/>
  <rect x="400" y="230" width="120" height="10" rx="5" fill="#7F77DD" opacity="0.7"/>
  <rect x="380" y="80" width="160" height="100" rx="14" fill="white" filter="url(#shadow)"/>
  <rect x="380" y="80" width="160" height="22" rx="10" fill="#7F77DD"/>
  <rect x="380" y="94" width="160" height="8" fill="#7F77DD"/>
  <rect x="390" y="116" width="130" height="7" rx="3" fill="#9CA3AF" opacity="0.4"/>
  <rect x="390" y="129" width="110" height="7" rx="3" fill="#9CA3AF" opacity="0.35"/>
  <rect x="390" y="142" width="120" height="7" rx="3" fill="#9CA3AF" opacity="0.3"/>
  <rect x="390" y="155" width="100" height="7" rx="3" fill="#9CA3AF" opacity="0.25"/>
  <line x1="460" y1="180" x2="460" y2="200" stroke="#7F77DD" stroke-width="2" opacity="0.5" stroke-dasharray="4 3"/>

  <!-- Phase 3: Post-Launch -->
  <circle cx="740" cy="203" r="16" fill="#A78BFA" opacity="0.85"/>
  <rect x="680" y="230" width="120" height="10" rx="5" fill="#A78BFA" opacity="0.55"/>
  <rect x="660" y="80" width="160" height="100" rx="14" fill="white" filter="url(#shadow)"/>
  <rect x="660" y="80" width="160" height="22" rx="10" fill="#A78BFA" opacity="0.75"/>
  <rect x="660" y="94" width="160" height="8" fill="#A78BFA" opacity="0.75"/>
  <rect x="670" y="116" width="130" height="7" rx="3" fill="#9CA3AF" opacity="0.35"/>
  <rect x="670" y="129" width="110" height="7" rx="3" fill="#9CA3AF" opacity="0.28"/>
  <rect x="670" y="142" width="120" height="7" rx="3" fill="#9CA3AF" opacity="0.24"/>
  <rect x="670" y="155" width="100" height="7" rx="3" fill="#9CA3AF" opacity="0.2"/>
  <line x1="740" y1="180" x2="740" y2="200" stroke="#A78BFA" stroke-width="2" opacity="0.4" stroke-dasharray="4 3"/>

  <!-- Phase 4: Scale -->
  <circle cx="1000" cy="203" r="16" fill="#10B981" opacity="0.75"/>
  <rect x="940" y="230" width="120" height="10" rx="5" fill="#10B981" opacity="0.5"/>
  <rect x="940" y="80" width="160" height="100" rx="14" fill="white" filter="url(#shadow)"/>
  <rect x="940" y="80" width="160" height="22" rx="10" fill="#10B981" opacity="0.7"/>
  <rect x="940" y="94" width="160" height="8" fill="#10B981" opacity="0.7"/>
  <rect x="950" y="116" width="130" height="7" rx="3" fill="#9CA3AF" opacity="0.35"/>
  <rect x="950" y="129" width="110" height="7" rx="3" fill="#9CA3AF" opacity="0.28"/>
  <rect x="950" y="142" width="120" height="7" rx="3" fill="#9CA3AF" opacity="0.24"/>
  <rect x="950" y="155" width="100" height="7" rx="3" fill="#9CA3AF" opacity="0.2"/>
  <line x1="1000" y1="180" x2="1000" y2="200" stroke="#10B981" stroke-width="2" opacity="0.4" stroke-dasharray="4 3"/>

  <!-- Bottom: channels row -->
  <rect x="80" y="280" width="1040" height="130" rx="16" fill="white" filter="url(#shadow)"/>
  <rect x="80" y="280" width="1040" height="36" rx="16" fill="#7F77DD" opacity="0.07"/>
  <rect x="96" y="292" width="100" height="8" rx="4" fill="#7F77DD" opacity="0.4"/>

  <!-- Channel pills -->
  <rect x="96" y="330" width="130" height="32" rx="16" fill="#7F77DD" opacity="0.12" stroke="#7F77DD" stroke-width="1" stroke-opacity="0.3"/>
  <rect x="112" y="340" width="100" height="8" rx="4" fill="#7F77DD" opacity="0.45"/>
  <rect x="244" y="330" width="130" height="32" rx="16" fill="#A78BFA" opacity="0.1" stroke="#A78BFA" stroke-width="1" stroke-opacity="0.3"/>
  <rect x="260" y="340" width="100" height="8" rx="4" fill="#A78BFA" opacity="0.45"/>
  <rect x="392" y="330" width="130" height="32" rx="16" fill="#7F77DD" opacity="0.1" stroke="#7F77DD" stroke-width="1" stroke-opacity="0.25"/>
  <rect x="408" y="340" width="100" height="8" rx="4" fill="#7F77DD" opacity="0.4"/>
  <rect x="540" y="330" width="130" height="32" rx="16" fill="#10B981" opacity="0.1" stroke="#10B981" stroke-width="1" stroke-opacity="0.3"/>
  <rect x="556" y="340" width="100" height="8" rx="4" fill="#10B981" opacity="0.45"/>
  <rect x="688" y="330" width="130" height="32" rx="16" fill="#F59E0B" opacity="0.1" stroke="#F59E0B" stroke-width="1" stroke-opacity="0.3"/>
  <rect x="704" y="340" width="100" height="8" rx="4" fill="#F59E0B" opacity="0.45"/>
  <rect x="836" y="330" width="130" height="32" rx="16" fill="#7F77DD" opacity="0.08" stroke="#DDD6FE" stroke-width="1"/>
  <rect x="852" y="340" width="100" height="8" rx="4" fill="#9CA3AF" opacity="0.35"/>
  <rect x="984" y="330" width="110" height="32" rx="16" fill="#7F77DD" opacity="0.08" stroke="#DDD6FE" stroke-width="1"/>
  <rect x="1000" y="340" width="80" height="8" rx="4" fill="#9CA3AF" opacity="0.3"/>

  <!-- Success metrics bottom strip -->
  <rect x="80" y="440" width="336" height="110" rx="16" fill="white" filter="url(#shadow)"/>
  <rect x="96" y="456" width="80" height="8" rx="4" fill="#7F77DD" opacity="0.5"/>
  <rect x="96" y="472" width="290" height="7" rx="3" fill="#9CA3AF" opacity="0.3"/>
  <rect x="96" y="485" width="240" height="7" rx="3" fill="#9CA3AF" opacity="0.24"/>
  <rect x="96" y="506" width="60" height="20" rx="10" fill="#7F77DD" opacity="0.12"/>
  <rect x="166" y="506" width="60" height="20" rx="10" fill="#A78BFA" opacity="0.12"/>
  <rect x="236" y="506" width="60" height="20" rx="10" fill="#10B981" opacity="0.12"/>

  <rect x="432" y="440" width="336" height="110" rx="16" fill="white" filter="url(#shadow)"/>
  <rect x="448" y="456" width="90" height="8" rx="4" fill="#7F77DD" opacity="0.5"/>
  <rect x="448" y="472" width="280" height="7" rx="3" fill="#9CA3AF" opacity="0.3"/>
  <rect x="448" y="485" width="240" height="7" rx="3" fill="#9CA3AF" opacity="0.22"/>
  <rect x="448" y="506" width="280" height="7" rx="3" fill="#9CA3AF" opacity="0.18"/>

  <rect x="784" y="440" width="336" height="110" rx="16" fill="white" filter="url(#shadow)"/>
  <rect x="800" y="456" width="100" height="8" rx="4" fill="#10B981" opacity="0.5"/>
  <rect x="800" y="472" width="280" height="7" rx="3" fill="#9CA3AF" opacity="0.3"/>
  <rect x="800" y="485" width="240" height="7" rx="3" fill="#9CA3AF" opacity="0.22"/>
  <rect x="800" y="506" width="120" height="16" rx="8" fill="#10B981" opacity="0.1" stroke="#10B981" stroke-width="1" stroke-opacity="0.35"/>

  <circle cx="60" cy="560" r="45" fill="#7F77DD" opacity="0.04"/>
  <circle cx="1150" cy="90" r="40" fill="#A78BFA" opacity="0.05"/>
</svg>
