<svg viewBox="0 0 1200 630" xmlns="http://www.w3.org/2000/svg">
  <defs>
    <linearGradient id="bg" x1="0" y1="0" x2="0" y2="1">
      <stop offset="0%" stop-color="#F5F3FF"/>
      <stop offset="100%" stop-color="#EDE9FE"/>
    </linearGradient>
    <filter id="shadow">
      <feDropShadow dx="0" dy="8" stdDeviation="16" flood-color="#7F77DD" flood-opacity="0.11"/>
    </filter>
  </defs>
  <rect width="1200" height="630" fill="url(#bg)"/>

  <!-- Before / After side by side -->
  <!-- Before panel -->
  <rect x="60" y="60" width="490" height="510" rx="20" fill="white" filter="url(#shadow)"/>
  <rect x="60" y="60" width="490" height="52" rx="20" fill="#9CA3AF" opacity="0.45"/>
  <rect x="60" y="94" width="490" height="18" fill="#9CA3AF" opacity="0.45"/>
  <rect x="80" y="74" width="100" height="10" rx="5" fill="white" opacity="0.7"/>

  <!-- Timeline items Before - slow -->
  <rect x="80" y="132" width="450" height="52" rx="10" fill="#FFF1F2" stroke="#FECDD3" stroke-width="1"/>
  <rect x="80" y="132" width="6" height="52" rx="3" fill="#EF4444" opacity="0.5"/>
  <rect x="96" y="143" width="180" height="8" rx="4" fill="#EF4444" opacity="0.4"/>
  <rect x="96" y="157" width="340" height="6" rx="3" fill="#9CA3AF" opacity="0.28"/>
  <rect x="96" y="169" width="300" height="6" rx="3" fill="#9CA3AF" opacity="0.22"/>
  <!-- Duration badge -->
  <rect x="418" y="138" width="100" height="20" rx="10" fill="#EF4444" opacity="0.12"/>
  <rect x="430" y="144" width="76" height="8" rx="4" fill="#EF4444" opacity="0.4"/>

  <rect x="80" y="196" width="450" height="52" rx="10" fill="#FFF1F2" stroke="#FECDD3" stroke-width="1"/>
  <rect x="80" y="196" width="6" height="52" rx="3" fill="#EF4444" opacity="0.4"/>
  <rect x="96" y="207" width="150" height="8" rx="4" fill="#EF4444" opacity="0.35"/>
  <rect x="96" y="221" width="340" height="6" rx="3" fill="#9CA3AF" opacity="0.25"/>
  <rect x="96" y="233" width="280" height="6" rx="3" fill="#9CA3AF" opacity="0.2"/>
  <rect x="418" y="202" width="100" height="20" rx="10" fill="#EF4444" opacity="0.12"/>
  <rect x="430" y="208" width="76" height="8" rx="4" fill="#EF4444" opacity="0.35"/>

  <rect x="80" y="260" width="450" height="52" rx="10" fill="#FFF7ED" stroke="#FDE68A" stroke-width="1"/>
  <rect x="80" y="260" width="6" height="52" rx="3" fill="#F59E0B" opacity="0.4"/>
  <rect x="96" y="271" width="160" height="8" rx="4" fill="#F59E0B" opacity="0.4"/>
  <rect x="96" y="285" width="340" height="6" rx="3" fill="#9CA3AF" opacity="0.25"/>
  <rect x="96" y="297" width="300" height="6" rx="3" fill="#9CA3AF" opacity="0.2"/>
  <rect x="418" y="266" width="100" height="20" rx="10" fill="#F59E0B" opacity="0.12"/>
  <rect x="430" y="272" width="76" height="8" rx="4" fill="#F59E0B" opacity="0.35"/>

  <rect x="80" y="324" width="450" height="52" rx="10" fill="#FFF1F2" stroke="#FECDD3" stroke-width="1"/>
  <rect x="80" y="324" width="6" height="52" rx="3" fill="#EF4444" opacity="0.4"/>
  <rect x="96" y="335" width="140" height="8" rx="4" fill="#EF4444" opacity="0.35"/>
  <rect x="96" y="349" width="300" height="6" rx="3" fill="#9CA3AF" opacity="0.22"/>
  <rect x="96" y="361" width="260" height="6" rx="3" fill="#9CA3AF" opacity="0.18"/>
  <rect x="418" y="330" width="100" height="20" rx="10" fill="#EF4444" opacity="0.12"/>
  <rect x="430" y="336" width="76" height="8" rx="4" fill="#EF4444" opacity="0.35"/>

  <!-- Total bar Before -->
  <rect x="80" y="400" width="450" height="40" rx="10" fill="#EF4444" opacity="0.08" stroke="#FECDD3" stroke-width="1"/>
  <rect x="96" y="414" width="200" height="8" rx="4" fill="#EF4444" opacity="0.35"/>
  <rect x="418" y="406" width="100" height="24" rx="12" fill="#EF4444" opacity="0.15"/>
  <rect x="426" y="413" width="84" height="10" rx="5" fill="#EF4444" opacity="0.45"/>

  <!-- After panel -->
  <rect x="650" y="60" width="490" height="510" rx="20" fill="white" filter="url(#shadow)"/>
  <rect x="650" y="60" width="490" height="52" rx="20" fill="#7F77DD"/>
  <rect x="650" y="94" width="490" height="18" fill="#7F77DD"/>
  <rect x="670" y="74" width="100" height="10" rx="5" fill="white" opacity="0.65"/>

  <!-- Timeline items After - fast with AI -->
  <rect x="670" y="132" width="450" height="52" rx="10" fill="#F5F3FF" stroke="#DDD6FE" stroke-width="1"/>
  <rect x="670" y="132" width="6" height="52" rx="3" fill="#7F77DD" opacity="0.6"/>
  <rect x="686" y="143" width="180" height="8" rx="4" fill="#7F77DD" opacity="0.5"/>
  <rect x="686" y="157" width="340" height="6" rx="3" fill="#9CA3AF" opacity="0.28"/>
  <rect x="686" y="169" width="300" height="6" rx="3" fill="#9CA3AF" opacity="0.22"/>
  <rect x="1008" y="138" width="100" height="20" rx="10" fill="#10B981" opacity="0.15"/>
  <rect x="1020" y="144" width="76" height="8" rx="4" fill="#10B981" opacity="0.5"/>

  <rect x="670" y="196" width="450" height="52" rx="10" fill="#F5F3FF" stroke="#DDD6FE" stroke-width="1"/>
  <rect x="670" y="196" width="6" height="52" rx="3" fill="#7F77DD" opacity="0.55"/>
  <rect x="686" y="207" width="150" height="8" rx="4" fill="#7F77DD" opacity="0.45"/>
  <rect x="686" y="221" width="320" height="6" rx="3" fill="#9CA3AF" opacity="0.25"/>
  <rect x="686" y="233" width="280" height="6" rx="3" fill="#9CA3AF" opacity="0.2"/>
  <rect x="1008" y="202" width="100" height="20" rx="10" fill="#10B981" opacity="0.15"/>
  <rect x="1020" y="208" width="76" height="8" rx="4" fill="#10B981" opacity="0.45"/>

  <rect x="670" y="260" width="450" height="52" rx="10" fill="#F5F3FF" stroke="#DDD6FE" stroke-width="1"/>
  <rect x="670" y="260" width="6" height="52" rx="3" fill="#A78BFA" opacity="0.5"/>
  <rect x="686" y="271" width="160" height="8" rx="4" fill="#A78BFA" opacity="0.45"/>
  <rect x="686" y="285" width="300" height="6" rx="3" fill="#9CA3AF" opacity="0.25"/>
  <rect x="686" y="297" width="260" height="6" rx="3" fill="#9CA3AF" opacity="0.2"/>
  <rect x="1008" y="266" width="100" height="20" rx="10" fill="#10B981" opacity="0.15"/>
  <rect x="1020" y="272" width="76" height="8" rx="4" fill="#10B981" opacity="0.4"/>

  <rect x="670" y="324" width="450" height="52" rx="10" fill="#F5F3FF" stroke="#DDD6FE" stroke-width="1"/>
  <rect x="670" y="324" width="6" height="52" rx="3" fill="#7F77DD" opacity="0.5"/>
  <rect x="686" y="335" width="140" height="8" rx="4" fill="#7F77DD" opacity="0.45"/>
  <rect x="686" y="349" width="280" height="6" rx="3" fill="#9CA3AF" opacity="0.22"/>
  <rect x="686" y="361" width="240" height="6" rx="3" fill="#9CA3AF" opacity="0.18"/>
  <rect x="1008" y="330" width="100" height="20" rx="10" fill="#10B981" opacity="0.15"/>
  <rect x="1020" y="336" width="76" height="8" rx="4" fill="#10B981" opacity="0.4"/>

  <!-- Total bar After -->
  <rect x="670" y="400" width="450" height="40" rx="10" fill="#10B981" opacity="0.08" stroke="#A7F3D0" stroke-width="1"/>
  <rect x="686" y="414" width="200" height="8" rx="4" fill="#10B981" opacity="0.45"/>
  <rect x="1008" y="406" width="100" height="24" rx="12" fill="#10B981" opacity="0.2"/>
  <rect x="1016" y="413" width="84" height="10" rx="5" fill="#10B981" opacity="0.55"/>

  <!-- Improvement metrics row -->
  <rect x="670" y="460" width="450" height="80" rx="12" fill="#F0FDF4" stroke="#A7F3D0" stroke-width="1"/>
  <rect x="696" y="480" width="80" height="32" rx="8" fill="#10B981" opacity="0.15"/>
  <rect x="704" y="489" width="60" height="14" rx="7" fill="#10B981" opacity="0.5"/>
  <rect x="796" y="480" width="80" height="32" rx="8" fill="#7F77DD" opacity="0.12"/>
  <rect x="804" y="489" width="60" height="14" rx="7" fill="#7F77DD" opacity="0.45"/>
  <rect x="896" y="480" width="80" height="32" rx="8" fill="#A78BFA" opacity="0.1"/>
  <rect x="904" y="489" width="60" height="14" rx="7" fill="#A78BFA" opacity="0.4"/>
  <rect x="996" y="480" width="80" height="32" rx="8" fill="#F59E0B" opacity="0.1"/>
  <rect x="1004" y="489" width="60" height="14" rx="7" fill="#F59E0B" opacity="0.4"/>

  <circle cx="60" cy="580" r="45" fill="#7F77DD" opacity="0.04"/>
  <circle cx="1150" cy="90" r="40" fill="#A78BFA" opacity="0.05"/>
</svg>
