<svg viewBox="0 0 1200 630" xmlns="http://www.w3.org/2000/svg">
  <defs>
    <linearGradient id="bg" x1="0" y1="0" x2="0" y2="1">
      <stop offset="0%" stop-color="#F5F3FF"/>
      <stop offset="100%" stop-color="#EDE9FE"/>
    </linearGradient>
    <filter id="shadow">
      <feDropShadow dx="0" dy="8" stdDeviation="16" flood-color="#7F77DD" flood-opacity="0.11"/>
    </filter>
  </defs>
  <rect width="1200" height="630" fill="url(#bg)"/>

  <!-- PM side -->
  <rect x="80" y="80" width="440" height="470" rx="20" fill="white" filter="url(#shadow)"/>
  <rect x="80" y="80" width="440" height="52" rx="20" fill="#7F77DD"/>
  <rect x="80" y="114" width="440" height="18" fill="#7F77DD"/>
  <rect x="110" y="96" width="60" height="10" rx="5" fill="white" opacity="0.65"/>

  <!-- PM owns: problem -->
  <rect x="100" y="152" width="400" height="60" rx="12" fill="#F5F3FF"/>
  <rect x="100" y="152" width="6" height="60" rx="3" fill="#7F77DD" opacity="0.7"/>
  <rect x="118" y="163" width="100" height="9" rx="4" fill="#7F77DD" opacity="0.55"/>
  <rect x="118" y="179" width="340" height="7" rx="3" fill="#9CA3AF" opacity="0.35"/>
  <rect x="118" y="192" width="280" height="7" rx="3" fill="#9CA3AF" opacity="0.28"/>

  <!-- PM owns: user -->
  <rect x="100" y="224" width="400" height="60" rx="12" fill="#F5F3FF"/>
  <rect x="100" y="224" width="6" height="60" rx="3" fill="#7F77DD" opacity="0.6"/>
  <rect x="118" y="235" width="80" height="9" rx="4" fill="#7F77DD" opacity="0.55"/>
  <rect x="118" y="251" width="340" height="7" rx="3" fill="#9CA3AF" opacity="0.33"/>
  <rect x="118" y="264" width="260" height="7" rx="3" fill="#9CA3AF" opacity="0.25"/>

  <!-- PM owns: success metrics -->
  <rect x="100" y="296" width="400" height="60" rx="12" fill="#F5F3FF"/>
  <rect x="100" y="296" width="6" height="60" rx="3" fill="#7F77DD" opacity="0.55"/>
  <rect x="118" y="307" width="110" height="9" rx="4" fill="#7F77DD" opacity="0.55"/>
  <rect x="118" y="323" width="320" height="7" rx="3" fill="#9CA3AF" opacity="0.3"/>
  <rect x="118" y="336" width="260" height="7" rx="3" fill="#9CA3AF" opacity="0.22"/>

  <!-- PM owns: constraints -->
  <rect x="100" y="368" width="400" height="60" rx="12" fill="#F5F3FF"/>
  <rect x="100" y="368" width="6" height="60" rx="3" fill="#A78BFA" opacity="0.55"/>
  <rect x="118" y="379" width="90" height="9" rx="4" fill="#A78BFA" opacity="0.5"/>
  <rect x="118" y="395" width="340" height="7" rx="3" fill="#9CA3AF" opacity="0.3"/>
  <rect x="118" y="408" width="280" height="7" rx="3" fill="#9CA3AF" opacity="0.22"/>

  <!-- PM NOT owns label -->
  <rect x="100" y="450" width="400" height="36" rx="10" fill="#FFF1F2"/>
  <rect x="100" y="450" width="6" height="36" rx="3" fill="#EF4444" opacity="0.45"/>
  <rect x="118" y="461" width="120" height="8" rx="4" fill="#EF4444" opacity="0.4"/>
  <rect x="118" y="475" width="280" height="6" rx="3" fill="#9CA3AF" opacity="0.25"/>

  <!-- Handoff arrow -->
  <line x1="540" y1="315" x2="640" y2="315" stroke="#7F77DD" stroke-width="3" opacity="0.35"/>
  <polygon points="640,307 658,315 640,323" fill="#7F77DD" opacity="0.35"/>
  <!-- Brief doc icon on arrow -->
  <rect x="570" y="280" width="50" height="62" rx="6" fill="white" stroke="#DDD6FE" stroke-width="1.5"/>
  <rect x="578" y="290" width="34" height="6" rx="3" fill="#7F77DD" opacity="0.3"/>
  <rect x="578" y="302" width="28" height="5" rx="2" fill="#9CA3AF" opacity="0.25"/>
  <rect x="578" y="313" width="34" height="5" rx="2" fill="#9CA3AF" opacity="0.22"/>
  <rect x="578" y="324" width="24" height="5" rx="2" fill="#9CA3AF" opacity="0.18"/>

  <!-- Designer side -->
  <rect x="680" y="80" width="440" height="470" rx="20" fill="white" filter="url(#shadow)"/>
  <rect x="680" y="80" width="440" height="52" rx="20" fill="#A78BFA" opacity="0.8"/>
  <rect x="680" y="114" width="440" height="18" fill="#A78BFA" opacity="0.8"/>
  <rect x="710" y="96" width="60" height="10" rx="5" fill="white" opacity="0.65"/>

  <!-- Designer owns: solution / IA -->
  <rect x="700" y="152" width="400" height="60" rx="12" fill="#F0EDFF"/>
  <rect x="700" y="152" width="6" height="60" rx="3" fill="#A78BFA" opacity="0.7"/>
  <rect x="718" y="163" width="120" height="9" rx="4" fill="#A78BFA" opacity="0.55"/>
  <rect x="718" y="179" width="340" height="7" rx="3" fill="#9CA3AF" opacity="0.35"/>
  <rect x="718" y="192" width="280" height="7" rx="3" fill="#9CA3AF" opacity="0.28"/>

  <!-- Designer owns: interaction patterns -->
  <rect x="700" y="224" width="400" height="60" rx="12" fill="#F0EDFF"/>
  <rect x="700" y="224" width="6" height="60" rx="3" fill="#A78BFA" opacity="0.6"/>
  <rect x="718" y="235" width="140" height="9" rx="4" fill="#A78BFA" opacity="0.55"/>
  <rect x="718" y="251" width="320" height="7" rx="3" fill="#9CA3AF" opacity="0.33"/>
  <rect x="718" y="264" width="260" height="7" rx="3" fill="#9CA3AF" opacity="0.25"/>

  <!-- Design frames placeholder -->
  <rect x="700" y="296" width="190" height="130" rx="12" fill="#F0EDFF" stroke="#DDD6FE" stroke-width="1"/>
  <rect x="712" y="308" width="166" height="100" rx="8" fill="white" opacity="0.6"/>
  <rect x="722" y="318" width="80" height="8" rx="4" fill="#A78BFA" opacity="0.4"/>
  <rect x="722" y="332" width="140" height="6" rx="3" fill="#9CA3AF" opacity="0.25"/>
  <rect x="722" y="344" width="120" height="30" rx="6" fill="#A78BFA" opacity="0.12"/>
  <rect x="722" y="384" width="100" height="8" rx="4" fill="#9CA3AF" opacity="0.2"/>

  <rect x="906" y="296" width="194" height="130" rx="12" fill="#F0EDFF" stroke="#DDD6FE" stroke-width="1"/>
  <rect x="918" y="308" width="170" height="100" rx="8" fill="white" opacity="0.6"/>
  <rect x="928" y="318" width="80" height="8" rx="4" fill="#A78BFA" opacity="0.35"/>
  <rect x="928" y="332" width="140" height="50" rx="8" fill="#A78BFA" opacity="0.1"/>
  <rect x="928" y="390" width="100" height="8" rx="4" fill="#9CA3AF" opacity="0.2"/>

  <!-- Review checklist bottom -->
  <rect x="700" y="444" width="400" height="76" rx="12" fill="#F9FAFB" stroke="#E5E7EB" stroke-width="1"/>
  <rect x="714" y="456" width="100" height="8" rx="4" fill="#9CA3AF" opacity="0.4"/>
  <rect x="714" y="472" width="16" height="16" rx="3" fill="#10B981" opacity="0.6"/>
  <rect x="736" y="476" width="140" height="6" rx="3" fill="#9CA3AF" opacity="0.3"/>
  <rect x="714" y="496" width="16" height="16" rx="3" fill="none" stroke="#D1D5DB" stroke-width="2"/>
  <rect x="736" y="500" width="160" height="6" rx="3" fill="#9CA3AF" opacity="0.25"/>

  <circle cx="60" cy="560" r="45" fill="#7F77DD" opacity="0.04"/>
  <circle cx="1150" cy="90" r="40" fill="#A78BFA" opacity="0.05"/>
</svg>
