<svg viewBox="0 0 1200 630" xmlns="http://www.w3.org/2000/svg">
  <defs>
    <linearGradient id="bg" x1="0" y1="0" x2="0" y2="1">
      <stop offset="0%" stop-color="#F5F3FF"/>
      <stop offset="100%" stop-color="#EDE9FE"/>
    </linearGradient>
    <filter id="shadow">
      <feDropShadow dx="0" dy="8" stdDeviation="16" flood-color="#7F77DD" flood-opacity="0.11"/>
    </filter>
  </defs>
  <rect width="1200" height="630" fill="url(#bg)"/>

  <!-- LLM diagram: token prediction pipeline -->
  <rect x="60" y="60" width="1080" height="200" rx="20" fill="white" filter="url(#shadow)"/>
  <rect x="60" y="60" width="1080" height="52" rx="20" fill="#7F77DD"/>
  <rect x="60" y="94" width="1080" height="18" fill="#7F77DD"/>
  <rect x="90" y="76" width="160" height="10" rx="5" fill="white" opacity="0.6"/>

  <!-- Token sequence -->
  <rect x="80" y="140" width="64" height="40" rx="8" fill="#F5F3FF" stroke="#DDD6FE" stroke-width="1.5"/>
  <rect x="88" y="154" width="48" height="8" rx="4" fill="#7F77DD" opacity="0.45"/>
  <rect x="156" y="140" width="64" height="40" rx="8" fill="#F5F3FF" stroke="#DDD6FE" stroke-width="1.5"/>
  <rect x="164" y="154" width="48" height="8" rx="4" fill="#7F77DD" opacity="0.45"/>
  <rect x="232" y="140" width="64" height="40" rx="8" fill="#F5F3FF" stroke="#DDD6FE" stroke-width="1.5"/>
  <rect x="240" y="154" width="48" height="8" rx="4" fill="#7F77DD" opacity="0.45"/>
  <rect x="308" y="140" width="64" height="40" rx="8" fill="#F5F3FF" stroke="#DDD6FE" stroke-width="1.5"/>
  <rect x="316" y="154" width="48" height="8" rx="4" fill="#7F77DD" opacity="0.45"/>
  <rect x="384" y="140" width="64" height="40" rx="8" fill="#F5F3FF" stroke="#DDD6FE" stroke-width="1.5"/>
  <rect x="392" y="154" width="48" height="8" rx="4" fill="#7F77DD" opacity="0.45"/>

  <!-- Arrow to LLM box -->
  <line x1="460" y1="160" x2="510" y2="160" stroke="#7F77DD" stroke-width="2" opacity="0.4"/>
  <polygon points="510,153 524,160 510,167" fill="#7F77DD" opacity="0.4"/>

  <!-- LLM box -->
  <rect x="524" y="128" width="160" height="64" rx="12" fill="#7F77DD" opacity="0.15" stroke="#7F77DD" stroke-width="2" stroke-opacity="0.35"/>
  <rect x="540" y="148" width="128" height="10" rx="5" fill="#7F77DD" opacity="0.5"/>
  <rect x="556" y="164" width="96" height="7" rx="3" fill="#9CA3AF" opacity="0.35"/>

  <!-- Arrow to output -->
  <line x1="684" y1="160" x2="730" y2="160" stroke="#7F77DD" stroke-width="2" opacity="0.4"/>
  <polygon points="730,153 744,160 730,167" fill="#7F77DD" opacity="0.4"/>

  <!-- Output tokens -->
  <rect x="744" y="140" width="80" height="40" rx="8" fill="#7F77DD" opacity="0.2" stroke="#7F77DD" stroke-width="1.5" stroke-opacity="0.5"/>
  <rect x="752" y="154" width="64" height="8" rx="4" fill="#7F77DD" opacity="0.55"/>
  <rect x="836" y="140" width="80" height="40" rx="8" fill="#7F77DD" opacity="0.12" stroke="#7F77DD" stroke-width="1" stroke-opacity="0.3"/>
  <rect x="844" y="154" width="64" height="8" rx="4" fill="#7F77DD" opacity="0.4"/>
  <rect x="928" y="140" width="80" height="40" rx="8" fill="#7F77DD" opacity="0.07" stroke="#DDD6FE" stroke-width="1"/>
  <rect x="936" y="154" width="64" height="8" rx="4" fill="#9CA3AF" opacity="0.35"/>

  <!-- Probability dots -->
  <circle cx="784" cy="200" r="5" fill="#7F77DD" opacity="0.6"/>
  <circle cx="876" cy="200" r="4" fill="#7F77DD" opacity="0.4"/>
  <circle cx="968" cy="200" r="3" fill="#7F77DD" opacity="0.25"/>

  <!-- Bottom: 3 concept cards -->
  <rect x="60" y="300" width="340" height="270" rx="16" fill="white" filter="url(#shadow)"/>
  <rect x="60" y="300" width="340" height="36" rx="16" fill="#7F77DD" opacity="0.8"/>
  <rect x="60" y="324" width="340" height="12" fill="#7F77DD" opacity="0.8"/>
  <rect x="78" y="310" width="120" height="8" rx="5" fill="white" opacity="0.65"/>
  <rect x="78" y="352" width="300" height="7" rx="3" fill="#9CA3AF" opacity="0.38"/>
  <rect x="78" y="365" width="280" height="7" rx="3" fill="#9CA3AF" opacity="0.3"/>
  <rect x="78" y="378" width="260" height="7" rx="3" fill="#9CA3AF" opacity="0.25"/>
  <!-- context diagram: sandwich -->
  <rect x="78" y="400" width="300" height="20" rx="6" fill="#7F77DD" opacity="0.12"/>
  <rect x="88" y="406" width="200" height="8" rx="4" fill="#7F77DD" opacity="0.4"/>
  <rect x="78" y="428" width="300" height="30" rx="6" fill="#9CA3AF" opacity="0.08"/>
  <rect x="88" y="440" width="180" height="7" rx="3" fill="#9CA3AF" opacity="0.3"/>
  <rect x="78" y="466" width="300" height="20" rx="6" fill="#7F77DD" opacity="0.12"/>
  <rect x="88" y="472" width="200" height="8" rx="4" fill="#7F77DD" opacity="0.4"/>

  <rect x="430" y="300" width="340" height="270" rx="16" fill="white" filter="url(#shadow)"/>
  <rect x="430" y="300" width="340" height="36" rx="16" fill="#EF4444" opacity="0.6"/>
  <rect x="430" y="324" width="340" height="12" fill="#EF4444" opacity="0.6"/>
  <rect x="448" y="310" width="100" height="8" rx="5" fill="white" opacity="0.7"/>
  <rect x="448" y="352" width="300" height="7" rx="3" fill="#9CA3AF" opacity="0.38"/>
  <rect x="448" y="365" width="280" height="7" rx="3" fill="#9CA3AF" opacity="0.3"/>
  <rect x="448" y="378" width="260" height="7" rx="3" fill="#9CA3AF" opacity="0.25"/>
  <rect x="448" y="398" width="300" height="60" rx="10" fill="#FFF1F2" stroke="#FECDD3" stroke-width="1"/>
  <rect x="460" y="410" width="200" height="7" rx="3" fill="#EF4444" opacity="0.4"/>
  <rect x="460" y="423" width="260" height="6" rx="3" fill="#9CA3AF" opacity="0.25"/>
  <rect x="460" y="435" width="240" height="6" rx="3" fill="#9CA3AF" opacity="0.2"/>
  <rect x="448" y="470" width="300" height="26" rx="8" fill="#FFF1F2"/>
  <rect x="460" y="479" width="180" height="7" rx="3" fill="#EF4444" opacity="0.35"/>

  <rect x="800" y="300" width="340" height="270" rx="16" fill="white" filter="url(#shadow)"/>
  <rect x="800" y="300" width="340" height="36" rx="16" fill="#A78BFA" opacity="0.75"/>
  <rect x="800" y="324" width="340" height="12" fill="#A78BFA" opacity="0.75"/>
  <rect x="818" y="310" width="100" height="8" rx="5" fill="white" opacity="0.65"/>
  <rect x="818" y="352" width="300" height="7" rx="3" fill="#9CA3AF" opacity="0.38"/>
  <rect x="818" y="365" width="280" height="7" rx="3" fill="#9CA3AF" opacity="0.3"/>
  <rect x="818" y="378" width="260" height="7" rx="3" fill="#9CA3AF" opacity="0.25"/>
  <!-- RAG diagram -->
  <rect x="818" y="400" width="130" height="50" rx="8" fill="#F0EDFF" stroke="#DDD6FE" stroke-width="1"/>
  <rect x="828" y="412" width="80" height="7" rx="3" fill="#A78BFA" opacity="0.45"/>
  <rect x="828" y="425" width="100" height="6" rx="3" fill="#9CA3AF" opacity="0.28"/>
  <rect x="828" y="437" width="90" height="6" rx="3" fill="#9CA3AF" opacity="0.22"/>
  <line x1="948" y1="425" x2="968" y2="425" stroke="#A78BFA" stroke-width="1.5" opacity="0.4"/>
  <polygon points="968,419 978,425 968,431" fill="#A78BFA" opacity="0.4"/>
  <rect x="978" y="400" width="130" height="50" rx="8" fill="#7F77DD" opacity="0.1" stroke="#DDD6FE" stroke-width="1"/>
  <rect x="988" y="412" width="80" height="7" rx="3" fill="#7F77DD" opacity="0.45"/>
  <rect x="988" y="425" width="100" height="6" rx="3" fill="#9CA3AF" opacity="0.28"/>
  <rect x="818" y="466" width="290" height="22" rx="8" fill="#F0EDFF"/>
  <rect x="828" y="473" width="200" height="7" rx="3" fill="#A78BFA" opacity="0.4"/>

  <circle cx="60" cy="580" r="45" fill="#7F77DD" opacity="0.04"/>
  <circle cx="1150" cy="90" r="40" fill="#A78BFA" opacity="0.05"/>
</svg>
