<svg viewBox="0 0 1200 630" xmlns="http://www.w3.org/2000/svg">
  <defs>
    <linearGradient id="bg" x1="0" y1="0" x2="0" y2="1">
      <stop offset="0%" stop-color="#F8F7FF"/>
      <stop offset="100%" stop-color="#F0EDFF"/>
    </linearGradient>
    <filter id="shadow">
      <feDropShadow dx="0" dy="8" stdDeviation="16" flood-color="#7F77DD" flood-opacity="0.1"/>
    </filter>
  </defs>
  <rect width="1200" height="630" fill="url(#bg)"/>

  <!-- Flow arrow connecting three docs -->
  <line x1="390" y1="315" x2="450" y2="315" stroke="#7F77DD" stroke-width="2" opacity="0.25" stroke-dasharray="5 4"/>
  <polygon points="450,309 462,315 450,321" fill="#7F77DD" opacity="0.25"/>
  <line x1="750" y1="315" x2="810" y2="315" stroke="#7F77DD" stroke-width="2" opacity="0.25" stroke-dasharray="5 4"/>
  <polygon points="810,309 822,315 810,321" fill="#7F77DD" opacity="0.25"/>

  <!-- MRD Card (leftmost) -->
  <rect x="80" y="90" width="310" height="450" rx="18" fill="white" filter="url(#shadow)"/>
  <rect x="80" y="90" width="310" height="54" rx="18" fill="#6EE7B7" opacity="0.7"/>
  <rect x="80" y="126" width="310" height="18" fill="#6EE7B7" opacity="0.7"/>
  <rect x="108" y="107" width="60" height="12" rx="6" fill="white" opacity="0.8"/>
  <rect x="176" y="109" width="90" height="8" rx="4" fill="white" opacity="0.4"/>

  <!-- MRD: market content -->
  <rect x="100" y="168" width="100" height="9" rx="4" fill="#10B981" opacity="0.5"/>
  <rect x="100" y="185" width="264" height="7" rx="3" fill="#9CA3AF" opacity="0.35"/>
  <rect x="100" y="198" width="220" height="7" rx="3" fill="#9CA3AF" opacity="0.28"/>
  <rect x="100" y="211" width="240" height="7" rx="3" fill="#9CA3AF" opacity="0.22"/>

  <line x1="100" y1="232" x2="368" y2="232" stroke="#E5E7EB" stroke-width="1"/>

  <rect x="100" y="244" width="90" height="9" rx="4" fill="#10B981" opacity="0.45"/>
  <!-- Concentric circles (market sizing mini) -->
  <circle cx="164" cy="290" r="38" fill="#6EE7B7" opacity="0.12"/>
  <circle cx="164" cy="290" r="26" fill="#6EE7B7" opacity="0.18"/>
  <circle cx="164" cy="290" r="14" fill="#6EE7B7" opacity="0.35"/>
  <rect x="210" y="270" width="150" height="7" rx="3" fill="#9CA3AF" opacity="0.3"/>
  <rect x="210" y="283" width="120" height="7" rx="3" fill="#9CA3AF" opacity="0.25"/>
  <rect x="210" y="296" width="140" height="7" rx="3" fill="#9CA3AF" opacity="0.2"/>
  <rect x="210" y="309" width="110" height="7" rx="3" fill="#9CA3AF" opacity="0.18"/>

  <line x1="100" y1="332" x2="368" y2="332" stroke="#E5E7EB" stroke-width="1"/>

  <rect x="100" y="344" width="110" height="9" rx="4" fill="#10B981" opacity="0.4"/>
  <rect x="100" y="360" width="264" height="7" rx="3" fill="#9CA3AF" opacity="0.3"/>
  <rect x="100" y="373" width="200" height="7" rx="3" fill="#9CA3AF" opacity="0.22"/>

  <!-- Audience tag -->
  <rect x="100" y="464" width="264" height="44" rx="10" fill="#F0FDF4"/>
  <rect x="112" y="476" width="60" height="7" rx="3" fill="#10B981" opacity="0.5"/>
  <rect x="112" y="490" width="180" height="6" rx="3" fill="#9CA3AF" opacity="0.28"/>
  <rect x="112" y="502" width="140" height="6" rx="3" fill="#9CA3AF" opacity="0.22"/>

  <!-- BRD Card (middle) -->
  <rect x="445" y="90" width="310" height="450" rx="18" fill="white" filter="url(#shadow)"/>
  <rect x="445" y="90" width="310" height="54" rx="18" fill="#F59E0B" opacity="0.75"/>
  <rect x="445" y="126" width="310" height="18" fill="#F59E0B" opacity="0.75"/>
  <rect x="473" y="107" width="60" height="12" rx="6" fill="white" opacity="0.8"/>
  <rect x="541" y="109" width="90" height="8" rx="4" fill="white" opacity="0.4"/>

  <!-- BRD: business requirements content -->
  <rect x="465" y="168" width="110" height="9" rx="4" fill="#F59E0B" opacity="0.6"/>
  <rect x="465" y="185" width="264" height="7" rx="3" fill="#9CA3AF" opacity="0.35"/>
  <rect x="465" y="198" width="220" height="7" rx="3" fill="#9CA3AF" opacity="0.28"/>

  <line x1="465" y1="218" x2="733" y2="218" stroke="#E5E7EB" stroke-width="1"/>

  <rect x="465" y="230" width="90" height="9" rx="4" fill="#F59E0B" opacity="0.5"/>
  <!-- Compliance checklist -->
  <rect x="465" y="248" width="16" height="16" rx="3" fill="#F59E0B" opacity="0.3"/>
  <rect x="489" y="252" width="180" height="6" rx="3" fill="#9CA3AF" opacity="0.3"/>
  <rect x="465" y="272" width="16" height="16" rx="3" fill="#F59E0B" opacity="0.3"/>
  <rect x="489" y="276" width="200" height="6" rx="3" fill="#9CA3AF" opacity="0.28"/>
  <rect x="465" y="296" width="16" height="16" rx="3" fill="#F59E0B" opacity="0.3"/>
  <rect x="489" y="300" width="160" height="6" rx="3" fill="#9CA3AF" opacity="0.25"/>
  <rect x="465" y="320" width="16" height="16" rx="3" fill="#F59E0B" opacity="0.3"/>
  <rect x="489" y="324" width="220" height="6" rx="3" fill="#9CA3AF" opacity="0.22"/>

  <line x1="465" y1="350" x2="733" y2="350" stroke="#E5E7EB" stroke-width="1"/>

  <rect x="465" y="362" width="80" height="9" rx="4" fill="#F59E0B" opacity="0.45"/>
  <rect x="465" y="378" width="264" height="7" rx="3" fill="#9CA3AF" opacity="0.3"/>
  <rect x="465" y="391" width="200" height="7" rx="3" fill="#9CA3AF" opacity="0.22"/>
  <rect x="465" y="404" width="240" height="7" rx="3" fill="#9CA3AF" opacity="0.18"/>

  <!-- Audience tag -->
  <rect x="465" y="464" width="264" height="44" rx="10" fill="#FFFBEB"/>
  <rect x="477" y="476" width="50" height="7" rx="3" fill="#F59E0B" opacity="0.5"/>
  <rect x="477" y="490" width="180" height="6" rx="3" fill="#9CA3AF" opacity="0.28"/>
  <rect x="477" y="502" width="150" height="6" rx="3" fill="#9CA3AF" opacity="0.22"/>

  <!-- PRD Card (rightmost) — highlighted as primary -->
  <rect x="810" y="70" width="310" height="490" rx="18" fill="white" filter="url(#shadow)"/>
  <rect x="810" y="70" width="310" height="54" rx="18" fill="#7F77DD"/>
  <rect x="810" y="106" width="310" height="18" fill="#7F77DD"/>
  <rect x="838" y="87" width="60" height="12" rx="6" fill="white" opacity="0.8"/>
  <rect x="906" y="89" width="90" height="8" rx="4" fill="white" opacity="0.45"/>

  <!-- PRD content — richer sections -->
  <rect x="830" y="148" width="100" height="9" rx="4" fill="#7F77DD" opacity="0.55"/>
  <rect x="830" y="165" width="264" height="7" rx="3" fill="#9CA3AF" opacity="0.4"/>
  <rect x="830" y="178" width="220" height="7" rx="3" fill="#9CA3AF" opacity="0.32"/>
  <rect x="830" y="191" width="240" height="7" rx="3" fill="#9CA3AF" opacity="0.26"/>

  <line x1="830" y1="212" x2="1098" y2="212" stroke="#E5E7EB" stroke-width="1"/>

  <rect x="830" y="224" width="90" height="9" rx="4" fill="#7F77DD" opacity="0.55"/>
  <!-- User story card -->
  <rect x="830" y="242" width="264" height="54" rx="8" fill="#F5F3FF"/>
  <rect x="830" y="242" width="4" height="54" rx="2" fill="#7F77DD"/>
  <rect x="844" y="253" width="130" height="6" rx="3" fill="#7F77DD" opacity="0.45"/>
  <rect x="844" y="265" width="200" height="6" rx="3" fill="#9CA3AF" opacity="0.3"/>
  <rect x="844" y="277" width="160" height="6" rx="3" fill="#9CA3AF" opacity="0.25"/>
  <rect x="844" y="285" width="180" height="6" rx="3" fill="#9CA3AF" opacity="0.2"/>

  <line x1="830" y1="312" x2="1098" y2="312" stroke="#E5E7EB" stroke-width="1"/>

  <rect x="830" y="324" width="110" height="9" rx="4" fill="#7F77DD" opacity="0.5"/>
  <!-- Requirements with checkboxes -->
  <rect x="830" y="342" width="14" height="14" rx="3" fill="#7F77DD" opacity="0.7"/>
  <path d="M833 349 l3 3 l6-6" stroke="white" stroke-width="2" fill="none" stroke-linecap="round" stroke-linejoin="round"/>
  <rect x="852" y="345" width="220" height="6" rx="3" fill="#9CA3AF" opacity="0.35"/>
  <rect x="830" y="364" width="14" height="14" rx="3" fill="#7F77DD" opacity="0.7"/>
  <path d="M833 371 l3 3 l6-6" stroke="white" stroke-width="2" fill="none" stroke-linecap="round" stroke-linejoin="round"/>
  <rect x="852" y="367" width="190" height="6" rx="3" fill="#9CA3AF" opacity="0.3"/>
  <rect x="830" y="386" width="14" height="14" rx="3" fill="none" stroke="#7F77DD" stroke-width="2" opacity="0.5"/>
  <rect x="852" y="389" width="210" height="6" rx="3" fill="#9CA3AF" opacity="0.25"/>

  <line x1="830" y1="414" x2="1098" y2="414" stroke="#E5E7EB" stroke-width="1"/>

  <rect x="830" y="426" width="80" height="9" rx="4" fill="#7F77DD" opacity="0.45"/>
  <rect x="830" y="442" width="264" height="7" rx="3" fill="#9CA3AF" opacity="0.28"/>
  <rect x="830" y="455" width="200" height="7" rx="3" fill="#9CA3AF" opacity="0.22"/>

  <!-- Audience tag + "you need this" -->
  <rect x="830" y="498" width="264" height="44" rx="10" fill="#F5F3FF" stroke="#DDD6FE" stroke-width="1"/>
  <rect x="842" y="510" width="70" height="7" rx="3" fill="#7F77DD" opacity="0.6"/>
  <rect x="842" y="524" width="200" height="6" rx="3" fill="#9CA3AF" opacity="0.3"/>
  <rect x="842" y="536" width="160" height="6" rx="3" fill="#9CA3AF" opacity="0.22"/>

  <!-- Decorative -->
  <circle cx="70" cy="560" r="50" fill="#7F77DD" opacity="0.04"/>
  <circle cx="1150" cy="100" r="40" fill="#A78BFA" opacity="0.05"/>
</svg>
