<svg viewBox="0 0 1200 630" xmlns="http://www.w3.org/2000/svg">
  <defs>
    <linearGradient id="bg" x1="0" y1="0" x2="0" y2="1">
      <stop offset="0%" stop-color="#F5F3FF"/>
      <stop offset="100%" stop-color="#EDE9FE"/>
    </linearGradient>
    <filter id="shadow">
      <feDropShadow dx="0" dy="8" stdDeviation="18" flood-color="#7F77DD" flood-opacity="0.12"/>
    </filter>
  </defs>
  <rect width="1200" height="630" fill="url(#bg)"/>

  <!-- Main checklist card -->
  <rect x="120" y="60" width="580" height="510" rx="20" fill="white" filter="url(#shadow)"/>
  <rect x="120" y="60" width="580" height="56" rx="20" fill="#7F77DD"/>
  <rect x="120" y="96" width="580" height="20" fill="#7F77DD"/>
  <rect x="150" y="78" width="100" height="10" rx="5" fill="white" opacity="0.65"/>
  <rect x="258" y="80" width="60" height="6" rx="3" fill="white" opacity="0.3"/>

  <!-- Phase labels and items -->
  <!-- 4 weeks -->
  <rect x="148" y="138" width="80" height="8" rx="4" fill="#7F77DD" opacity="0.55"/>

  <!-- checked items -->
  <rect x="148" y="160" width="18" height="18" rx="4" fill="#7F77DD" opacity="0.8"/>
  <path d="M152 169 l4 4 l8-8" stroke="white" stroke-width="2" fill="none" stroke-linecap="round" stroke-linejoin="round"/>
  <rect x="176" y="163" width="200" height="8" rx="4" fill="#9CA3AF" opacity="0.4"/>

  <rect x="148" y="188" width="18" height="18" rx="4" fill="#7F77DD" opacity="0.8"/>
  <path d="M152 197 l4 4 l8-8" stroke="white" stroke-width="2" fill="none" stroke-linecap="round" stroke-linejoin="round"/>
  <rect x="176" y="191" width="240" height="8" rx="4" fill="#9CA3AF" opacity="0.4"/>

  <rect x="148" y="216" width="18" height="18" rx="4" fill="#7F77DD" opacity="0.8"/>
  <path d="M152 225 l4 4 l8-8" stroke="white" stroke-width="2" fill="none" stroke-linecap="round" stroke-linejoin="round"/>
  <rect x="176" y="219" width="180" height="8" rx="4" fill="#9CA3AF" opacity="0.35"/>

  <line x1="148" y1="248" x2="660" y2="248" stroke="#F3F4F6" stroke-width="1.5"/>

  <!-- 2 weeks -->
  <rect x="148" y="262" width="90" height="8" rx="4" fill="#7F77DD" opacity="0.55"/>

  <rect x="148" y="284" width="18" height="18" rx="4" fill="#7F77DD" opacity="0.8"/>
  <path d="M152 293 l4 4 l8-8" stroke="white" stroke-width="2" fill="none" stroke-linecap="round" stroke-linejoin="round"/>
  <rect x="176" y="287" width="260" height="8" rx="4" fill="#9CA3AF" opacity="0.4"/>

  <rect x="148" y="312" width="18" height="18" rx="4" fill="#7F77DD" opacity="0.8"/>
  <path d="M152 321 l4 4 l8-8" stroke="white" stroke-width="2" fill="none" stroke-linecap="round" stroke-linejoin="round"/>
  <rect x="176" y="315" width="220" height="8" rx="4" fill="#9CA3AF" opacity="0.35"/>

  <rect x="148" y="340" width="18" height="18" rx="4" fill="#7F77DD" opacity="0.8"/>
  <path d="M152 349 l4 4 l8-8" stroke="white" stroke-width="2" fill="none" stroke-linecap="round" stroke-linejoin="round"/>
  <rect x="176" y="343" width="200" height="8" rx="4" fill="#9CA3AF" opacity="0.35"/>

  <line x1="148" y1="372" x2="660" y2="372" stroke="#F3F4F6" stroke-width="1.5"/>

  <!-- Launch day — highlighted -->
  <rect x="130" y="382" width="558" height="94" rx="12" fill="#F5F3FF"/>
  <rect x="148" y="394" width="80" height="8" rx="4" fill="#7F77DD" opacity="0.7"/>

  <!-- half-done checkboxes -->
  <rect x="148" y="416" width="18" height="18" rx="4" fill="none" stroke="#7F77DD" stroke-width="2"/>
  <rect x="176" y="419" width="240" height="8" rx="4" fill="#9CA3AF" opacity="0.35"/>

  <rect x="148" y="444" width="18" height="18" rx="4" fill="none" stroke="#7F77DD" stroke-width="2"/>
  <rect x="176" y="447" width="200" height="8" rx="4" fill="#9CA3AF" opacity="0.3"/>

  <!-- Post-launch -->
  <rect x="148" y="500" width="100" height="8" rx="4" fill="#9CA3AF" opacity="0.4"/>
  <rect x="148" y="520" width="18" height="18" rx="4" fill="none" stroke="#D1D5DB" stroke-width="2"/>
  <rect x="176" y="523" width="180" height="8" rx="4" fill="#9CA3AF" opacity="0.25"/>
  <rect x="148" y="548" width="18" height="18" rx="4" fill="none" stroke="#D1D5DB" stroke-width="2"/>
  <rect x="176" y="551" width="220" height="8" rx="4" fill="#9CA3AF" opacity="0.2"/>

  <!-- Timeline on the right -->
  <rect x="760" y="100" width="340" height="430" rx="20" fill="white" filter="url(#shadow)"/>
  <!-- Timeline spine -->
  <line x1="820" y1="140" x2="820" y2="490" stroke="#E5E7EB" stroke-width="2"/>

  <!-- Timeline dots + cards -->
  <!-- 4 weeks -->
  <circle cx="820" cy="160" r="10" fill="#7F77DD" opacity="0.8"/>
  <rect x="840" y="148" width="230" height="36" rx="8" fill="#F5F3FF"/>
  <rect x="856" y="157" width="80" height="8" rx="4" fill="#7F77DD" opacity="0.5"/>
  <rect x="856" y="170" width="140" height="6" rx="3" fill="#9CA3AF" opacity="0.3"/>

  <!-- 2 weeks -->
  <circle cx="820" cy="240" r="10" fill="#7F77DD" opacity="0.7"/>
  <rect x="840" y="228" width="230" height="36" rx="8" fill="#F5F3FF"/>
  <rect x="856" y="237" width="90" height="8" rx="4" fill="#7F77DD" opacity="0.5"/>
  <rect x="856" y="250" width="130" height="6" rx="3" fill="#9CA3AF" opacity="0.3"/>

  <!-- 1 week -->
  <circle cx="820" cy="320" r="10" fill="#7F77DD" opacity="0.65"/>
  <rect x="840" y="308" width="230" height="36" rx="8" fill="#F5F3FF"/>
  <rect x="856" y="317" width="70" height="8" rx="4" fill="#7F77DD" opacity="0.5"/>
  <rect x="856" y="330" width="150" height="6" rx="3" fill="#9CA3AF" opacity="0.3"/>

  <!-- Launch day (highlighted) -->
  <circle cx="820" cy="400" r="14" fill="#7F77DD"/>
  <rect x="840" y="384" width="230" height="44" rx="8" fill="#7F77DD" opacity="0.12"/>
  <rect x="856" y="395" width="100" height="10" rx="4" fill="#7F77DD" opacity="0.6"/>
  <rect x="856" y="412" width="160" height="7" rx="3" fill="#7F77DD" opacity="0.3"/>

  <!-- 30 days -->
  <circle cx="820" cy="480" r="10" fill="#D1D5DB"/>
  <rect x="840" y="468" width="230" height="36" rx="8" fill="#F9FAFB"/>
  <rect x="856" y="477" width="80" height="8" rx="4" fill="#9CA3AF" opacity="0.4"/>
  <rect x="856" y="490" width="120" height="6" rx="3" fill="#9CA3AF" opacity="0.25"/>

  <!-- Decorative -->
  <circle cx="80" cy="560" r="45" fill="#7F77DD" opacity="0.05"/>
  <circle cx="1130" cy="80" r="40" fill="#A78BFA" opacity="0.05"/>
</svg>
