<svg viewBox="0 0 1200 630" xmlns="http://www.w3.org/2000/svg">
  <defs>
    <linearGradient id="bg" x1="0" y1="0" x2="0" y2="1">
      <stop offset="0%" stop-color="#F5F3FF"/>
      <stop offset="100%" stop-color="#EDE9FE"/>
    </linearGradient>
    <filter id="shadow">
      <feDropShadow dx="0" dy="8" stdDeviation="16" flood-color="#7F77DD" flood-opacity="0.11"/>
    </filter>
  </defs>
  <rect width="1200" height="630" fill="url(#bg)"/>

  <!-- 4-quadrant retro board -->
  <!-- Card container -->
  <rect x="60" y="60" width="1080" height="510" rx="20" fill="white" filter="url(#shadow)"/>
  <!-- Header bar -->
  <rect x="60" y="60" width="1080" height="52" rx="20" fill="#7F77DD"/>
  <rect x="60" y="94" width="1080" height="18" fill="#7F77DD"/>
  <rect x="90" y="76" width="150" height="10" rx="5" fill="white" opacity="0.6"/>

  <!-- Quadrant dividers -->
  <line x1="600" y1="112" x2="600" y2="570" stroke="#F0EDFF" stroke-width="2"/>
  <line x1="60" y1="340" x2="1140" y2="340" stroke="#F0EDFF" stroke-width="2"/>

  <!-- Top-left: What Went Well -->
  <rect x="76" y="126" width="180" height="22" rx="8" fill="#10B981" opacity="0.12"/>
  <rect x="90" y="132" width="120" height="8" rx="4" fill="#10B981" opacity="0.55"/>

  <rect x="76" y="160" width="494" height="50" rx="10" fill="#F0FDF4" stroke="#A7F3D0" stroke-width="1"/>
  <rect x="92" y="170" width="140" height="7" rx="3" fill="#10B981" opacity="0.45"/>
  <rect x="92" y="183" width="360" height="6" rx="3" fill="#9CA3AF" opacity="0.3"/>
  <rect x="92" y="195" width="300" height="6" rx="3" fill="#9CA3AF" opacity="0.24"/>

  <rect x="76" y="222" width="494" height="50" rx="10" fill="#F0FDF4" stroke="#A7F3D0" stroke-width="1"/>
  <rect x="92" y="232" width="120" height="7" rx="3" fill="#10B981" opacity="0.4"/>
  <rect x="92" y="245" width="340" height="6" rx="3" fill="#9CA3AF" opacity="0.28"/>
  <rect x="92" y="257" width="280" height="6" rx="3" fill="#9CA3AF" opacity="0.22"/>

  <rect x="76" y="284" width="494" height="38" rx="10" fill="#F0FDF4" stroke="#A7F3D0" stroke-width="1"/>
  <rect x="92" y="294" width="160" height="7" rx="3" fill="#10B981" opacity="0.38"/>
  <rect x="92" y="307" width="320" height="6" rx="3" fill="#9CA3AF" opacity="0.25"/>

  <!-- Top-right: What Didn't Go Well -->
  <rect x="616" y="126" width="220" height="22" rx="8" fill="#EF4444" opacity="0.1"/>
  <rect x="630" y="132" width="160" height="8" rx="4" fill="#EF4444" opacity="0.45"/>

  <rect x="616" y="160" width="494" height="50" rx="10" fill="#FFF1F2" stroke="#FECDD3" stroke-width="1"/>
  <rect x="632" y="170" width="140" height="7" rx="3" fill="#EF4444" opacity="0.4"/>
  <rect x="632" y="183" width="360" height="6" rx="3" fill="#9CA3AF" opacity="0.3"/>
  <rect x="632" y="195" width="300" height="6" rx="3" fill="#9CA3AF" opacity="0.24"/>

  <rect x="616" y="222" width="494" height="50" rx="10" fill="#FFF1F2" stroke="#FECDD3" stroke-width="1"/>
  <rect x="632" y="232" width="120" height="7" rx="3" fill="#EF4444" opacity="0.35"/>
  <rect x="632" y="245" width="340" height="6" rx="3" fill="#9CA3AF" opacity="0.28"/>
  <rect x="632" y="257" width="280" height="6" rx="3" fill="#9CA3AF" opacity="0.22"/>

  <rect x="616" y="284" width="494" height="38" rx="10" fill="#FFF7ED" stroke="#FDE68A" stroke-width="1"/>
  <rect x="632" y="294" width="160" height="7" rx="3" fill="#F59E0B" opacity="0.45"/>
  <rect x="632" y="307" width="320" height="6" rx="3" fill="#9CA3AF" opacity="0.25"/>

  <!-- Bottom-left: Action Items -->
  <rect x="76" y="356" width="160" height="22" rx="8" fill="#7F77DD" opacity="0.12"/>
  <rect x="90" y="362" width="120" height="8" rx="4" fill="#7F77DD" opacity="0.55"/>

  <rect x="76" y="390" width="494" height="50" rx="10" fill="#F5F3FF" stroke="#DDD6FE" stroke-width="1"/>
  <circle cx="96" cy="415" r="10" fill="#7F77DD" opacity="0.2"/>
  <rect x="96" y="411" width="8" height="8" rx="1" fill="#7F77DD" opacity="0.4"/>
  <rect x="116" y="400" width="140" height="7" rx="3" fill="#7F77DD" opacity="0.5"/>
  <rect x="116" y="413" width="360" height="6" rx="3" fill="#9CA3AF" opacity="0.3"/>
  <rect x="116" y="425" width="280" height="6" rx="3" fill="#9CA3AF" opacity="0.24"/>

  <rect x="76" y="452" width="494" height="50" rx="10" fill="#F5F3FF" stroke="#DDD6FE" stroke-width="1"/>
  <rect x="116" y="462" width="120" height="7" rx="3" fill="#7F77DD" opacity="0.45"/>
  <rect x="116" y="475" width="340" height="6" rx="3" fill="#9CA3AF" opacity="0.28"/>
  <rect x="116" y="487" width="260" height="6" rx="3" fill="#9CA3AF" opacity="0.22"/>

  <rect x="76" y="514" width="494" height="36" rx="10" fill="#F5F3FF" stroke="#DDD6FE" stroke-width="1"/>
  <rect x="116" y="524" width="160" height="7" rx="3" fill="#7F77DD" opacity="0.4"/>
  <rect x="116" y="537" width="300" height="6" rx="3" fill="#9CA3AF" opacity="0.22"/>

  <!-- Bottom-right: Kudos / Experiments -->
  <rect x="616" y="356" width="160" height="22" rx="8" fill="#F59E0B" opacity="0.12"/>
  <rect x="630" y="362" width="120" height="8" rx="4" fill="#F59E0B" opacity="0.55"/>

  <rect x="616" y="390" width="494" height="50" rx="10" fill="#FFFBEB" stroke="#FDE68A" stroke-width="1"/>
  <rect x="632" y="400" width="140" height="7" rx="3" fill="#F59E0B" opacity="0.5"/>
  <rect x="632" y="413" width="360" height="6" rx="3" fill="#9CA3AF" opacity="0.3"/>
  <rect x="632" y="425" width="280" height="6" rx="3" fill="#9CA3AF" opacity="0.24"/>

  <rect x="616" y="452" width="494" height="50" rx="10" fill="#FFFBEB" stroke="#FDE68A" stroke-width="1"/>
  <rect x="632" y="462" width="120" height="7" rx="3" fill="#F59E0B" opacity="0.45"/>
  <rect x="632" y="475" width="340" height="6" rx="3" fill="#9CA3AF" opacity="0.28"/>
  <rect x="632" y="487" width="260" height="6" rx="3" fill="#9CA3AF" opacity="0.22"/>

  <rect x="616" y="514" width="494" height="36" rx="10" fill="#FFFBEB" stroke="#FDE68A" stroke-width="1"/>
  <rect x="632" y="524" width="160" height="7" rx="3" fill="#F59E0B" opacity="0.4"/>
  <rect x="632" y="537" width="300" height="6" rx="3" fill="#9CA3AF" opacity="0.22"/>

  <circle cx="60" cy="560" r="45" fill="#7F77DD" opacity="0.04"/>
  <circle cx="1150" cy="90" r="40" fill="#A78BFA" opacity="0.05"/>
</svg>
