<svg viewBox="0 0 1200 630" xmlns="http://www.w3.org/2000/svg">
  <defs>
    <linearGradient id="bg" x1="0" y1="0" x2="0" y2="1">
      <stop offset="0%" stop-color="#F5F3FF"/>
      <stop offset="100%" stop-color="#EDE9FE"/>
    </linearGradient>
    <filter id="shadow">
      <feDropShadow dx="0" dy="8" stdDeviation="18" flood-color="#7F77DD" flood-opacity="0.12"/>
    </filter>
  </defs>
  <rect width="1200" height="630" fill="url(#bg)"/>

  <!-- Main dashboard card -->
  <rect x="100" y="70" width="1000" height="490" rx="20" fill="white" filter="url(#shadow)"/>

  <!-- Dashboard header -->
  <rect x="100" y="70" width="1000" height="52" rx="20" fill="#7F77DD"/>
  <rect x="100" y="104" width="1000" height="18" fill="#7F77DD"/>
  <rect x="130" y="88" width="100" height="10" rx="5" fill="white" opacity="0.6"/>
  <rect x="238" y="90" width="60" height="6" rx="3" fill="white" opacity="0.3"/>

  <!-- North star metric — highlighted top row -->
  <rect x="130" y="148" width="940" height="80" rx="14" fill="#F5F3FF" stroke="#DDD6FE" stroke-width="1.5"/>
  <!-- Star icon placeholder -->
  <polygon points="190,178 195,163 200,178 216,178 203,187 208,202 195,193 182,202 187,187 174,178" fill="#7F77DD" opacity="0.35"/>
  <rect x="225" y="165" width="120" height="9" rx="4" fill="#7F77DD" opacity="0.6"/>
  <rect x="225" y="182" width="220" height="7" rx="3" fill="#9CA3AF" opacity="0.4"/>
  <rect x="225" y="197" width="170" height="7" rx="3" fill="#9CA3AF" opacity="0.3"/>
  <!-- Big metric number placeholder -->
  <rect x="820" y="162" width="80" height="28" rx="8" fill="#7F77DD" opacity="0.15"/>
  <rect x="826" y="168" width="68" height="16" rx="5" fill="#7F77DD" opacity="0.4"/>
  <rect x="830" y="196" width="60" height="8" rx="4" fill="#22C55E" opacity="0.5"/>

  <!-- Three KPI tiles -->
  <!-- Tile 1: Activation -->
  <rect x="130" y="252" width="290" height="130" rx="14" fill="#F9FAFB" stroke="#E5E7EB" stroke-width="1"/>
  <rect x="150" y="272" width="90" height="9" rx="4" fill="#9CA3AF" opacity="0.4"/>
  <rect x="150" y="290" width="140" height="24" rx="6" fill="#7F77DD" opacity="0.15"/>
  <rect x="156" y="296" width="90" height="12" rx="4" fill="#7F77DD" opacity="0.5"/>
  <!-- Trend line up -->
  <polyline points="150,355 175,345 210,340 245,328 280,315 315,302 375,290" fill="none" stroke="#7F77DD" stroke-width="2.5" opacity="0.5" stroke-linecap="round" stroke-linejoin="round"/>

  <!-- Tile 2: Retention -->
  <rect x="455" y="252" width="290" height="130" rx="14" fill="#F9FAFB" stroke="#E5E7EB" stroke-width="1"/>
  <rect x="475" y="272" width="80" height="9" rx="4" fill="#9CA3AF" opacity="0.4"/>
  <rect x="475" y="290" width="140" height="24" rx="6" fill="#A78BFA" opacity="0.15"/>
  <rect x="481" y="296" width="90" height="12" rx="4" fill="#A78BFA" opacity="0.5"/>
  <!-- Retention bar chart -->
  <rect x="480" y="352" width="24" height="20" rx="3" fill="#A78BFA" opacity="0.3"/>
  <rect x="512" y="342" width="24" height="30" rx="3" fill="#A78BFA" opacity="0.4"/>
  <rect x="544" y="334" width="24" height="38" rx="3" fill="#A78BFA" opacity="0.5"/>
  <rect x="576" y="328" width="24" height="44" rx="3" fill="#A78BFA" opacity="0.65"/>
  <rect x="608" y="322" width="24" height="50" rx="3" fill="#A78BFA" opacity="0.75"/>
  <rect x="640" y="318" width="24" height="54" rx="3" fill="#A78BFA" opacity="0.85"/>
  <line x1="475" y1="374" x2="695" y2="374" stroke="#E5E7EB" stroke-width="1"/>

  <!-- Tile 3: Revenue/NRR -->
  <rect x="780" y="252" width="290" height="130" rx="14" fill="#F9FAFB" stroke="#E5E7EB" stroke-width="1"/>
  <rect x="800" y="272" width="70" height="9" rx="4" fill="#9CA3AF" opacity="0.4"/>
  <rect x="800" y="290" width="140" height="24" rx="6" fill="#10B981" opacity="0.12"/>
  <rect x="806" y="296" width="90" height="12" rx="4" fill="#10B981" opacity="0.45"/>
  <rect x="800" y="330" width="60" height="8" rx="4" fill="#9CA3AF" opacity="0.3"/>
  <!-- NRR > 100% indicator -->
  <rect x="800" y="346" width="240" height="12" rx="6" fill="#E5E7EB"/>
  <rect x="800" y="346" width="252" height="12" rx="6" fill="#10B981" opacity="0.5"/>
  <rect x="924" y="342" width="2" height="20" rx="1" fill="#374151" opacity="0.3"/>
  <rect x="800" y="366" width="60" height="6" rx="3" fill="#9CA3AF" opacity="0.25"/>
  <rect x="912" y="366" width="70" height="6" rx="3" fill="#10B981" opacity="0.4"/>

  <!-- Bottom row: activity vs outcome explanation -->
  <rect x="130" y="408" width="940" height="110" rx="14" fill="#FFFBEB" stroke="#FDE68A" stroke-width="1"/>
  <!-- Three columns with labels -->
  <rect x="160" y="428" width="70" height="8" rx="4" fill="#F59E0B" opacity="0.5"/>
  <rect x="160" y="444" width="200" height="7" rx="3" fill="#9CA3AF" opacity="0.3"/>
  <rect x="160" y="457" width="160" height="7" rx="3" fill="#9CA3AF" opacity="0.25"/>
  <rect x="160" y="470" width="140" height="7" rx="3" fill="#9CA3AF" opacity="0.22"/>

  <line x1="440" y1="420" x2="440" y2="508" stroke="#FDE68A" stroke-width="1"/>

  <rect x="465" y="428" width="90" height="8" rx="4" fill="#F59E0B" opacity="0.5"/>
  <rect x="465" y="444" width="200" height="7" rx="3" fill="#9CA3AF" opacity="0.3"/>
  <rect x="465" y="457" width="170" height="7" rx="3" fill="#9CA3AF" opacity="0.25"/>
  <rect x="465" y="470" width="150" height="7" rx="3" fill="#9CA3AF" opacity="0.22"/>

  <line x1="760" y1="420" x2="760" y2="508" stroke="#FDE68A" stroke-width="1"/>

  <rect x="785" y="428" width="80" height="8" rx="4" fill="#EF4444" opacity="0.4"/>
  <rect x="785" y="444" width="210" height="7" rx="3" fill="#9CA3AF" opacity="0.3"/>
  <rect x="785" y="457" width="170" height="7" rx="3" fill="#9CA3AF" opacity="0.25"/>
  <rect x="785" y="470" width="130" height="7" rx="3" fill="#9CA3AF" opacity="0.22"/>

  <!-- Decorative -->
  <circle cx="80" cy="560" r="40" fill="#7F77DD" opacity="0.04"/>
  <circle cx="1130" cy="80" r="45" fill="#A78BFA" opacity="0.05"/>
</svg>
