<svg viewBox="0 0 1200 630" xmlns="http://www.w3.org/2000/svg">
  <defs>
    <linearGradient id="bg" x1="0" y1="0" x2="0" y2="1">
      <stop offset="0%" stop-color="#F5F3FF"/>
      <stop offset="100%" stop-color="#EDE9FE"/>
    </linearGradient>
    <filter id="shadow">
      <feDropShadow dx="0" dy="8" stdDeviation="16" flood-color="#7F77DD" flood-opacity="0.11"/>
    </filter>
  </defs>
  <rect width="1200" height="630" fill="url(#bg)"/>

  <!-- Prompt anatomy card -->
  <rect x="60" y="60" width="560" height="510" rx="20" fill="white" filter="url(#shadow)"/>
  <rect x="60" y="60" width="560" height="52" rx="20" fill="#7F77DD"/>
  <rect x="60" y="94" width="560" height="18" fill="#7F77DD"/>
  <rect x="88" y="76" width="120" height="10" rx="5" fill="white" opacity="0.65"/>

  <!-- Context block -->
  <rect x="80" y="142" width="520" height="80" rx="12" fill="#F5F3FF"/>
  <rect x="80" y="142" width="6" height="80" rx="3" fill="#7F77DD" opacity="0.7"/>
  <rect x="98" y="154" width="80" height="9" rx="4" fill="#7F77DD" opacity="0.55"/>
  <rect x="98" y="170" width="460" height="7" rx="3" fill="#9CA3AF" opacity="0.35"/>
  <rect x="98" y="183" width="400" height="7" rx="3" fill="#9CA3AF" opacity="0.28"/>
  <rect x="98" y="196" width="430" height="7" rx="3" fill="#9CA3AF" opacity="0.22"/>
  <rect x="98" y="209" width="360" height="7" rx="3" fill="#9CA3AF" opacity="0.18"/>

  <!-- Evidence injection block -->
  <rect x="80" y="236" width="520" height="80" rx="12" fill="#F0EDFF"/>
  <rect x="80" y="236" width="6" height="80" rx="3" fill="#A78BFA" opacity="0.7"/>
  <rect x="98" y="248" width="110" height="9" rx="4" fill="#A78BFA" opacity="0.55"/>
  <rect x="98" y="264" width="460" height="7" rx="3" fill="#9CA3AF" opacity="0.32"/>
  <rect x="98" y="277" width="400" height="7" rx="3" fill="#9CA3AF" opacity="0.25"/>
  <rect x="98" y="290" width="430" height="7" rx="3" fill="#9CA3AF" opacity="0.22"/>
  <rect x="98" y="303" width="360" height="7" rx="3" fill="#9CA3AF" opacity="0.18"/>

  <!-- Format spec block -->
  <rect x="80" y="330" width="520" height="70" rx="12" fill="#F0FDF4"/>
  <rect x="80" y="330" width="6" height="70" rx="3" fill="#10B981" opacity="0.65"/>
  <rect x="98" y="342" width="100" height="9" rx="4" fill="#10B981" opacity="0.55"/>
  <rect x="98" y="358" width="460" height="7" rx="3" fill="#9CA3AF" opacity="0.3"/>
  <rect x="98" y="371" width="380" height="7" rx="3" fill="#9CA3AF" opacity="0.24"/>
  <rect x="98" y="384" width="420" height="7" rx="3" fill="#9CA3AF" opacity="0.18"/>

  <!-- Constraints block -->
  <rect x="80" y="414" width="520" height="60" rx="12" fill="#FFF7ED"/>
  <rect x="80" y="414" width="6" height="60" rx="3" fill="#F59E0B" opacity="0.6"/>
  <rect x="98" y="426" width="80" height="9" rx="4" fill="#F59E0B" opacity="0.5"/>
  <rect x="98" y="442" width="460" height="7" rx="3" fill="#9CA3AF" opacity="0.28"/>
  <rect x="98" y="455" width="380" height="7" rx="3" fill="#9CA3AF" opacity="0.22"/>

  <!-- Task block -->
  <rect x="80" y="488" width="520" height="56" rx="12" fill="#7F77DD" opacity="0.08" stroke="#DDD6FE" stroke-width="1"/>
  <rect x="98" y="500" width="60" height="9" rx="4" fill="#7F77DD" opacity="0.55"/>
  <rect x="98" y="516" width="460" height="7" rx="3" fill="#9CA3AF" opacity="0.3"/>
  <rect x="98" y="529" width="380" height="7" rx="3" fill="#9CA3AF" opacity="0.22"/>

  <!-- Output card -->
  <rect x="660" y="60" width="480" height="510" rx="20" fill="white" filter="url(#shadow)"/>
  <rect x="660" y="60" width="480" height="52" rx="20" fill="#10B981" opacity="0.7"/>
  <rect x="660" y="94" width="480" height="18" fill="#10B981" opacity="0.7"/>
  <rect x="688" y="76" width="100" height="10" rx="5" fill="white" opacity="0.65"/>

  <!-- Output sections -->
  <rect x="680" y="142" width="440" height="56" rx="10" fill="#F0FDF4" stroke="#A7F3D0" stroke-width="1"/>
  <rect x="696" y="153" width="90" height="8" rx="4" fill="#10B981" opacity="0.5"/>
  <rect x="696" y="167" width="380" height="6" rx="3" fill="#9CA3AF" opacity="0.3"/>
  <rect x="696" y="179" width="320" height="6" rx="3" fill="#9CA3AF" opacity="0.25"/>
  <rect x="696" y="187" width="340" height="6" rx="3" fill="#9CA3AF" opacity="0.2"/>

  <rect x="680" y="210" width="440" height="70" rx="10" fill="#F0FDF4" stroke="#A7F3D0" stroke-width="1"/>
  <rect x="696" y="221" width="80" height="8" rx="4" fill="#10B981" opacity="0.5"/>
  <rect x="696" y="235" width="380" height="6" rx="3" fill="#9CA3AF" opacity="0.28"/>
  <rect x="696" y="247" width="340" height="6" rx="3" fill="#9CA3AF" opacity="0.22"/>
  <rect x="696" y="259" width="360" height="6" rx="3" fill="#9CA3AF" opacity="0.18"/>
  <rect x="696" y="267" width="300" height="6" rx="3" fill="#9CA3AF" opacity="0.15"/>

  <rect x="680" y="292" width="440" height="56" rx="10" fill="#F0FDF4" stroke="#A7F3D0" stroke-width="1"/>
  <rect x="696" y="303" width="100" height="8" rx="4" fill="#10B981" opacity="0.45"/>
  <rect x="696" y="317" width="380" height="6" rx="3" fill="#9CA3AF" opacity="0.28"/>
  <rect x="696" y="329" width="320" height="6" rx="3" fill="#9CA3AF" opacity="0.22"/>
  <rect x="696" y="337" width="340" height="6" rx="3" fill="#9CA3AF" opacity="0.18"/>

  <rect x="680" y="360" width="440" height="56" rx="10" fill="#F0FDF4" stroke="#A7F3D0" stroke-width="1"/>
  <rect x="696" y="371" width="70" height="8" rx="4" fill="#10B981" opacity="0.4"/>
  <rect x="696" y="385" width="360" height="6" rx="3" fill="#9CA3AF" opacity="0.25"/>
  <rect x="696" y="397" width="300" height="6" rx="3" fill="#9CA3AF" opacity="0.2"/>
  <rect x="696" y="405" width="320" height="6" rx="3" fill="#9CA3AF" opacity="0.16"/>

  <!-- Quality score -->
  <rect x="680" y="434" width="440" height="100" rx="14" fill="#7F77DD" opacity="0.06" stroke="#DDD6FE" stroke-width="1"/>
  <rect x="698" y="450" width="120" height="8" rx="4" fill="#7F77DD" opacity="0.4"/>
  <rect x="698" y="466" width="380" height="7" rx="3" fill="#9CA3AF" opacity="0.28"/>
  <rect x="698" y="479" width="340" height="7" rx="3" fill="#9CA3AF" opacity="0.22"/>
  <rect x="698" y="502" width="100" height="20" rx="10" fill="#7F77DD" opacity="0.12" stroke="#7F77DD" stroke-width="1" stroke-opacity="0.3"/>
  <rect x="808" y="502" width="100" height="20" rx="10" fill="#10B981" opacity="0.1" stroke="#10B981" stroke-width="1" stroke-opacity="0.25"/>

  <circle cx="60" cy="560" r="45" fill="#7F77DD" opacity="0.04"/>
  <circle cx="1150" cy="90" r="40" fill="#A78BFA" opacity="0.05"/>
</svg>
