<svg viewBox="0 0 1200 630" xmlns="http://www.w3.org/2000/svg">
  <defs>
    <linearGradient id="bg" x1="0" y1="0" x2="0" y2="1">
      <stop offset="0%" stop-color="#F5F3FF"/>
      <stop offset="100%" stop-color="#EDE9FE"/>
    </linearGradient>
    <filter id="shadow">
      <feDropShadow dx="0" dy="8" stdDeviation="16" flood-color="#7F77DD" flood-opacity="0.11"/>
    </filter>
  </defs>
  <rect width="1200" height="630" fill="url(#bg)"/>

  <!-- Layer diagram: 3 stacked layers -->
  <!-- Layer 1: Capture -->
  <rect x="60" y="80" width="1080" height="120" rx="16" fill="white" filter="url(#shadow)"/>
  <rect x="60" y="80" width="1080" height="36" rx="16" fill="#9CA3AF" opacity="0.4"/>
  <rect x="60" y="104" width="1080" height="12" fill="#9CA3AF" opacity="0.4"/>
  <rect x="80" y="90" width="80" height="8" rx="4" fill="white" opacity="0.7"/>

  <!-- Source icons -->
  <rect x="80" y="128" width="120" height="44" rx="10" fill="#FFF7ED" stroke="#FDE68A" stroke-width="1"/>
  <rect x="92" y="140" width="70" height="7" rx="3" fill="#F59E0B" opacity="0.5"/>
  <rect x="92" y="153" width="90" height="6" rx="3" fill="#9CA3AF" opacity="0.28"/>

  <rect x="216" y="128" width="120" height="44" rx="10" fill="#EFF6FF" stroke="#BFDBFE" stroke-width="1"/>
  <rect x="228" y="140" width="70" height="7" rx="3" fill="#3B82F6" opacity="0.5"/>
  <rect x="228" y="153" width="90" height="6" rx="3" fill="#9CA3AF" opacity="0.25"/>

  <rect x="352" y="128" width="120" height="44" rx="10" fill="#F5F3FF" stroke="#DDD6FE" stroke-width="1"/>
  <rect x="364" y="140" width="70" height="7" rx="3" fill="#7F77DD" opacity="0.45"/>
  <rect x="364" y="153" width="90" height="6" rx="3" fill="#9CA3AF" opacity="0.25"/>

  <rect x="488" y="128" width="120" height="44" rx="10" fill="#F0FDF4" stroke="#A7F3D0" stroke-width="1"/>
  <rect x="500" y="140" width="70" height="7" rx="3" fill="#10B981" opacity="0.5"/>
  <rect x="500" y="153" width="90" height="6" rx="3" fill="#9CA3AF" opacity="0.25"/>

  <rect x="624" y="128" width="120" height="44" rx="10" fill="#FFF1F2" stroke="#FECDD3" stroke-width="1"/>
  <rect x="636" y="140" width="70" height="7" rx="3" fill="#EF4444" opacity="0.4"/>
  <rect x="636" y="153" width="90" height="6" rx="3" fill="#9CA3AF" opacity="0.22"/>

  <!-- Layer 2: Structure (AI) -->
  <rect x="60" y="240" width="1080" height="130" rx="16" fill="white" filter="url(#shadow)"/>
  <rect x="60" y="240" width="1080" height="36" rx="16" fill="#7F77DD" opacity="0.85"/>
  <rect x="60" y="264" width="1080" height="12" fill="#7F77DD" opacity="0.85"/>
  <rect x="80" y="250" width="120" height="8" rx="4" fill="white" opacity="0.65"/>

  <!-- AI tag/theme pills -->
  <rect x="80" y="286" width="140" height="22" rx="11" fill="#7F77DD" opacity="0.15" stroke="#7F77DD" stroke-width="1" stroke-opacity="0.3"/>
  <rect x="92" y="292" width="116" height="8" rx="4" fill="#7F77DD" opacity="0.5"/>
  <rect x="232" y="286" width="140" height="22" rx="11" fill="#7F77DD" opacity="0.12"/>
  <rect x="244" y="292" width="116" height="8" rx="4" fill="#7F77DD" opacity="0.4"/>
  <rect x="384" y="286" width="140" height="22" rx="11" fill="#A78BFA" opacity="0.12"/>
  <rect x="396" y="292" width="116" height="8" rx="4" fill="#A78BFA" opacity="0.4"/>
  <rect x="536" y="286" width="140" height="22" rx="11" fill="#10B981" opacity="0.1"/>
  <rect x="548" y="292" width="116" height="8" rx="4" fill="#10B981" opacity="0.45"/>
  <rect x="688" y="286" width="140" height="22" rx="11" fill="#F59E0B" opacity="0.1"/>
  <rect x="700" y="292" width="116" height="8" rx="4" fill="#F59E0B" opacity="0.4"/>

  <rect x="80" y="316" width="800" height="7" rx="3" fill="#9CA3AF" opacity="0.25"/>
  <rect x="80" y="329" width="650" height="7" rx="3" fill="#9CA3AF" opacity="0.2"/>
  <rect x="80" y="342" width="700" height="7" rx="3" fill="#9CA3AF" opacity="0.15"/>

  <!-- Layer 3: Connection & Retrieval -->
  <rect x="60" y="410" width="1080" height="170" rx="16" fill="white" filter="url(#shadow)"/>
  <rect x="60" y="410" width="1080" height="36" rx="16" fill="#A78BFA" opacity="0.75"/>
  <rect x="60" y="434" width="1080" height="12" fill="#A78BFA" opacity="0.75"/>
  <rect x="80" y="420" width="160" height="8" rx="4" fill="white" opacity="0.65"/>

  <!-- Query input -->
  <rect x="80" y="460" width="560" height="38" rx="19" fill="#F9FAFB" stroke="#E5E7EB" stroke-width="1.5"/>
  <rect x="104" y="474" width="240" height="8" rx="4" fill="#9CA3AF" opacity="0.35"/>
  <circle cx="620" cy="479" r="15" fill="#A78BFA" opacity="0.7"/>

  <!-- Retrieved results -->
  <rect x="80" y="512" width="340" height="44" rx="10" fill="#F0EDFF" stroke="#DDD6FE" stroke-width="1"/>
  <rect x="96" y="522" width="160" height="7" rx="3" fill="#A78BFA" opacity="0.5"/>
  <rect x="96" y="535" width="280" height="6" rx="3" fill="#9CA3AF" opacity="0.28"/>
  <rect x="96" y="543" width="240" height="6" rx="3" fill="#9CA3AF" opacity="0.22"/>

  <rect x="436" y="512" width="340" height="44" rx="10" fill="#F0EDFF" stroke="#DDD6FE" stroke-width="1"/>
  <rect x="452" y="522" width="160" height="7" rx="3" fill="#A78BFA" opacity="0.45"/>
  <rect x="452" y="535" width="260" height="6" rx="3" fill="#9CA3AF" opacity="0.25"/>
  <rect x="452" y="543" width="220" height="6" rx="3" fill="#9CA3AF" opacity="0.2"/>

  <rect x="792" y="512" width="320" height="44" rx="10" fill="#F0EDFF" stroke="#DDD6FE" stroke-width="1"/>
  <rect x="808" y="522" width="140" height="7" rx="3" fill="#A78BFA" opacity="0.4"/>
  <rect x="808" y="535" width="270" height="6" rx="3" fill="#9CA3AF" opacity="0.25"/>
  <rect x="808" y="543" width="220" height="6" rx="3" fill="#9CA3AF" opacity="0.2"/>

  <circle cx="60" cy="580" r="45" fill="#7F77DD" opacity="0.04"/>
</svg>
