<svg viewBox="0 0 1200 630" xmlns="http://www.w3.org/2000/svg">
  <defs>
    <linearGradient id="bg" x1="0" y1="0" x2="0" y2="1">
      <stop offset="0%" stop-color="#F5F3FF"/>
      <stop offset="100%" stop-color="#EDE9FE"/>
    </linearGradient>
    <filter id="shadow">
      <feDropShadow dx="0" dy="8" stdDeviation="16" flood-color="#7F77DD" flood-opacity="0.11"/>
    </filter>
  </defs>
  <rect width="1200" height="630" fill="url(#bg)"/>

  <!-- Top: keyword vs semantic comparison -->
  <rect x="60" y="60" width="500" height="220" rx="20" fill="white" filter="url(#shadow)"/>
  <rect x="60" y="60" width="500" height="52" rx="20" fill="#9CA3AF" opacity="0.45"/>
  <rect x="60" y="94" width="500" height="18" fill="#9CA3AF" opacity="0.45"/>
  <rect x="80" y="76" width="120" height="8" rx="5" fill="white" opacity="0.7"/>

  <!-- Keyword search results: misses -->
  <rect x="80" y="128" width="460" height="36" rx="8" fill="#F9FAFB" stroke="#E5E7EB" stroke-width="1"/>
  <rect x="96" y="140" width="200" height="8" rx="4" fill="#9CA3AF" opacity="0.4"/>
  <rect x="500" y="136" width="30" height="18" rx="9" fill="#10B981" opacity="0.2"/>
  <rect x="80" y="172" width="460" height="28" rx="8" fill="#FFF1F2" stroke="#FECDD3" stroke-width="1"/>
  <rect x="96" y="180" width="180" height="8" rx="4" fill="#9CA3AF" opacity="0.3"/>
  <rect x="500" y="176" width="30" height="18" rx="9" fill="#EF4444" opacity="0.15"/>
  <rect x="80" y="208" width="460" height="28" rx="8" fill="#FFF1F2" stroke="#FECDD3" stroke-width="1"/>
  <rect x="96" y="216" width="160" height="8" rx="4" fill="#9CA3AF" opacity="0.28"/>
  <rect x="500" y="212" width="30" height="18" rx="9" fill="#EF4444" opacity="0.15"/>
  <rect x="80" y="244" width="460" height="18" rx="6" fill="#F9FAFB"/>
  <rect x="96" y="249" width="200" height="6" rx="3" fill="#9CA3AF" opacity="0.25"/>

  <rect x="640" y="60" width="500" height="220" rx="20" fill="white" filter="url(#shadow)"/>
  <rect x="640" y="60" width="500" height="52" rx="20" fill="#7F77DD"/>
  <rect x="640" y="94" width="500" height="18" fill="#7F77DD"/>
  <rect x="660" y="76" width="120" height="8" rx="5" fill="white" opacity="0.65"/>

  <!-- Semantic: all match -->
  <rect x="660" y="128" width="460" height="30" rx="8" fill="#F5F3FF" stroke="#DDD6FE" stroke-width="1"/>
  <rect x="676" y="136" width="200" height="8" rx="4" fill="#7F77DD" opacity="0.45"/>
  <circle cx="1096" cy="143" r="10" fill="#10B981" opacity="0.65"/>
  <path d="M1090 143 l3 3 l7-7" stroke="white" stroke-width="2" fill="none" stroke-linecap="round" stroke-linejoin="round"/>
  <rect x="660" y="166" width="460" height="30" rx="8" fill="#F5F3FF" stroke="#DDD6FE" stroke-width="1"/>
  <rect x="676" y="174" width="180" height="8" rx="4" fill="#7F77DD" opacity="0.4"/>
  <circle cx="1096" cy="181" r="10" fill="#10B981" opacity="0.65"/>
  <path d="M1090 181 l3 3 l7-7" stroke="white" stroke-width="2" fill="none" stroke-linecap="round" stroke-linejoin="round"/>
  <rect x="660" y="204" width="460" height="30" rx="8" fill="#F5F3FF" stroke="#DDD6FE" stroke-width="1"/>
  <rect x="676" y="212" width="160" height="8" rx="4" fill="#7F77DD" opacity="0.4"/>
  <circle cx="1096" cy="219" r="10" fill="#10B981" opacity="0.65"/>
  <path d="M1090 219 l3 3 l7-7" stroke="white" stroke-width="2" fill="none" stroke-linecap="round" stroke-linejoin="round"/>
  <rect x="660" y="242" width="460" height="18" rx="6" fill="#F5F3FF"/>
  <rect x="676" y="247" width="200" height="6" rx="3" fill="#7F77DD" opacity="0.3"/>

  <!-- Vector space visualisation -->
  <rect x="60" y="320" width="500" height="260" rx="20" fill="white" filter="url(#shadow)"/>
  <rect x="60" y="320" width="500" height="36" rx="16" fill="#7F77DD" opacity="0.8"/>
  <rect x="60" y="344" width="500" height="12" fill="#7F77DD" opacity="0.8"/>
  <rect x="80" y="330" width="140" height="8" rx="5" fill="white" opacity="0.65"/>

  <!-- Dot clusters -->
  <circle cx="220" cy="440" r="40" fill="#7F77DD" opacity="0.04" stroke="#DDD6FE" stroke-width="1" stroke-dasharray="4 3"/>
  <circle cx="200" cy="430" r="7" fill="#7F77DD" opacity="0.5"/>
  <circle cx="225" cy="420" r="6" fill="#7F77DD" opacity="0.4"/>
  <circle cx="240" cy="445" r="7" fill="#A78BFA" opacity="0.5"/>
  <circle cx="215" cy="458" r="6" fill="#7F77DD" opacity="0.35"/>
  <circle cx="235" cy="432" r="5" fill="#A78BFA" opacity="0.4"/>

  <circle cx="390" cy="510" r="36" fill="#10B981" opacity="0.04" stroke="#A7F3D0" stroke-width="1" stroke-dasharray="4 3"/>
  <circle cx="375" cy="500" r="6" fill="#10B981" opacity="0.5"/>
  <circle cx="400" cy="495" r="7" fill="#10B981" opacity="0.4"/>
  <circle cx="395" cy="520" r="6" fill="#10B981" opacity="0.45"/>
  <circle cx="370" cy="518" r="5" fill="#10B981" opacity="0.35"/>

  <circle cx="460" cy="395" r="30" fill="#F59E0B" opacity="0.04" stroke="#FDE68A" stroke-width="1" stroke-dasharray="4 3"/>
  <circle cx="450" cy="388" r="6" fill="#F59E0B" opacity="0.45"/>
  <circle cx="470" cy="393" r="5" fill="#F59E0B" opacity="0.4"/>
  <circle cx="462" cy="407" r="6" fill="#F59E0B" opacity="0.35"/>

  <!-- Right: use cases -->
  <rect x="640" y="320" width="500" height="260" rx="20" fill="white" filter="url(#shadow)"/>
  <rect x="640" y="320" width="500" height="36" rx="16" fill="#7F77DD" opacity="0.8"/>
  <rect x="640" y="344" width="500" height="12" fill="#7F77DD" opacity="0.8"/>
  <rect x="660" y="330" width="120" height="8" rx="5" fill="white" opacity="0.65"/>

  <rect x="660" y="374" width="460" height="44" rx="10" fill="#F5F3FF"/>
  <rect x="660" y="374" width="6" height="44" rx="3" fill="#7F77DD" opacity="0.6"/>
  <rect x="676" y="385" width="130" height="8" rx="4" fill="#7F77DD" opacity="0.5"/>
  <rect x="676" y="399" width="400" height="6" rx="3" fill="#9CA3AF" opacity="0.28"/>

  <rect x="660" y="428" width="460" height="44" rx="10" fill="#F5F3FF"/>
  <rect x="660" y="428" width="6" height="44" rx="3" fill="#A78BFA" opacity="0.55"/>
  <rect x="676" y="439" width="120" height="8" rx="4" fill="#A78BFA" opacity="0.5"/>
  <rect x="676" y="453" width="400" height="6" rx="3" fill="#9CA3AF" opacity="0.25"/>

  <rect x="660" y="482" width="460" height="44" rx="10" fill="#F5F3FF"/>
  <rect x="660" y="482" width="6" height="44" rx="3" fill="#10B981" opacity="0.55"/>
  <rect x="676" y="493" width="140" height="8" rx="4" fill="#10B981" opacity="0.5"/>
  <rect x="676" y="507" width="380" height="6" rx="3" fill="#9CA3AF" opacity="0.25"/>

  <rect x="660" y="536" width="460" height="28" rx="8" fill="#7F77DD" opacity="0.06" stroke="#DDD6FE" stroke-width="1"/>
  <rect x="676" y="546" width="300" height="6" rx="3" fill="#9CA3AF" opacity="0.25"/>

  <circle cx="60" cy="580" r="45" fill="#7F77DD" opacity="0.04"/>
  <circle cx="1150" cy="90" r="40" fill="#A78BFA" opacity="0.05"/>
</svg>
