<svg viewBox="0 0 1200 630" xmlns="http://www.w3.org/2000/svg">
  <defs>
    <linearGradient id="bg" x1="0" y1="0" x2="0" y2="1">
      <stop offset="0%" stop-color="#F5F3FF"/>
      <stop offset="100%" stop-color="#EDE9FE"/>
    </linearGradient>
    <filter id="shadow">
      <feDropShadow dx="0" dy="8" stdDeviation="16" flood-color="#7F77DD" flood-opacity="0.11"/>
    </filter>
  </defs>
  <rect width="1200" height="630" fill="url(#bg)"/>

  <!-- 4-week program header bar -->
  <rect x="60" y="60" width="1080" height="56" rx="14" fill="white" filter="url(#shadow)"/>
  <rect x="60" y="60" width="1080" height="56" rx="14" fill="#7F77DD" opacity="0.1"/>

  <!-- Week indicators -->
  <rect x="80" y="73" width="220" height="30" rx="10" fill="#7F77DD" opacity="0.2"/>
  <rect x="96" y="82" width="140" height="8" rx="4" fill="#7F77DD" opacity="0.55"/>
  <line x1="310" y1="86" x2="340" y2="86" stroke="#7F77DD" stroke-width="1.5" opacity="0.3"/>
  <polygon points="340,81 352,86 340,91" fill="#7F77DD" opacity="0.3"/>

  <rect x="352" y="73" width="220" height="30" rx="10" fill="#A78BFA" opacity="0.18"/>
  <rect x="368" y="82" width="140" height="8" rx="4" fill="#A78BFA" opacity="0.5"/>
  <line x1="582" y1="86" x2="612" y2="86" stroke="#A78BFA" stroke-width="1.5" opacity="0.3"/>
  <polygon points="612,81 624,86 612,91" fill="#A78BFA" opacity="0.3"/>

  <rect x="624" y="73" width="220" height="30" rx="10" fill="#3B82F6" opacity="0.12"/>
  <rect x="640" y="82" width="140" height="8" rx="4" fill="#3B82F6" opacity="0.45"/>
  <line x1="854" y1="86" x2="884" y2="86" stroke="#3B82F6" stroke-width="1.5" opacity="0.3"/>
  <polygon points="884,81 896,86 884,91" fill="#3B82F6" opacity="0.3"/>

  <rect x="896" y="73" width="224" height="30" rx="10" fill="#10B981" opacity="0.12"/>
  <rect x="912" y="82" width="140" height="8" rx="4" fill="#10B981" opacity="0.45"/>

  <!-- Week 1 card -->
  <rect x="60" y="148" width="255" height="430" rx="16" fill="white" filter="url(#shadow)"/>
  <rect x="60" y="148" width="255" height="40" rx="16" fill="#7F77DD" opacity="0.8"/>
  <rect x="60" y="172" width="255" height="16" fill="#7F77DD" opacity="0.8"/>
  <rect x="76" y="158" width="110" height="8" rx="4" fill="white" opacity="0.65"/>

  <rect x="76" y="204" width="220" height="52" rx="10" fill="#F5F3FF" stroke="#DDD6FE" stroke-width="1"/>
  <rect x="88" y="215" width="130" height="7" rx="3" fill="#7F77DD" opacity="0.5"/>
  <rect x="88" y="228" width="180" height="6" rx="3" fill="#9CA3AF" opacity="0.3"/>
  <rect x="88" y="240" width="160" height="6" rx="3" fill="#9CA3AF" opacity="0.24"/>

  <rect x="76" y="266" width="220" height="52" rx="10" fill="#F5F3FF" stroke="#DDD6FE" stroke-width="1"/>
  <rect x="88" y="277" width="120" height="7" rx="3" fill="#7F77DD" opacity="0.45"/>
  <rect x="88" y="290" width="180" height="6" rx="3" fill="#9CA3AF" opacity="0.25"/>
  <rect x="88" y="302" width="150" height="6" rx="3" fill="#9CA3AF" opacity="0.2"/>

  <rect x="76" y="328" width="220" height="52" rx="10" fill="#F5F3FF" stroke="#DDD6FE" stroke-width="1"/>
  <rect x="88" y="339" width="140" height="7" rx="3" fill="#7F77DD" opacity="0.4"/>
  <rect x="88" y="352" width="180" height="6" rx="3" fill="#9CA3AF" opacity="0.22"/>
  <rect x="88" y="364" width="150" height="6" rx="3" fill="#9CA3AF" opacity="0.18"/>

  <rect x="76" y="396" width="220" height="160" rx="10" fill="#7F77DD" opacity="0.05" stroke="#DDD6FE" stroke-width="1"/>
  <rect x="92" y="409" width="100" height="7" rx="3" fill="#7F77DD" opacity="0.4"/>
  <rect x="92" y="422" width="180" height="6" rx="3" fill="#9CA3AF" opacity="0.22"/>
  <rect x="92" y="434" width="150" height="6" rx="3" fill="#9CA3AF" opacity="0.18"/>
  <rect x="92" y="450" width="100" height="20" rx="10" fill="#7F77DD" opacity="0.1"/>
  <rect x="202" y="450" width="80" height="20" rx="10" fill="#7F77DD" opacity="0.08"/>
  <rect x="92" y="478" width="120" height="20" rx="10" fill="#A78BFA" opacity="0.08"/>
  <rect x="222" y="478" width="60" height="20" rx="10" fill="#A78BFA" opacity="0.08"/>
  <rect x="92" y="506" width="80" height="20" rx="10" fill="#10B981" opacity="0.08"/>
  <rect x="182" y="506" width="100" height="20" rx="10" fill="#10B981" opacity="0.06"/>

  <!-- Week 2 card -->
  <rect x="335" y="148" width="255" height="430" rx="16" fill="white" filter="url(#shadow)"/>
  <rect x="335" y="148" width="255" height="40" rx="16" fill="#A78BFA" opacity="0.7"/>
  <rect x="335" y="172" width="255" height="16" fill="#A78BFA" opacity="0.7"/>
  <rect x="351" y="158" width="110" height="8" rx="4" fill="white" opacity="0.65"/>

  <rect x="351" y="204" width="220" height="52" rx="10" fill="#F5F3FF" stroke="#DDD6FE" stroke-width="1"/>
  <rect x="363" y="215" width="130" height="7" rx="3" fill="#A78BFA" opacity="0.5"/>
  <rect x="363" y="228" width="180" height="6" rx="3" fill="#9CA3AF" opacity="0.28"/>
  <rect x="363" y="240" width="160" height="6" rx="3" fill="#9CA3AF" opacity="0.22"/>

  <rect x="351" y="266" width="220" height="52" rx="10" fill="#F5F3FF" stroke="#DDD6FE" stroke-width="1"/>
  <rect x="363" y="277" width="150" height="7" rx="3" fill="#A78BFA" opacity="0.45"/>
  <rect x="363" y="290" width="180" height="6" rx="3" fill="#9CA3AF" opacity="0.25"/>
  <rect x="363" y="302" width="150" height="6" rx="3" fill="#9CA3AF" opacity="0.2"/>

  <rect x="351" y="328" width="220" height="52" rx="10" fill="#F5F3FF" stroke="#DDD6FE" stroke-width="1"/>
  <rect x="363" y="339" width="120" height="7" rx="3" fill="#A78BFA" opacity="0.4"/>
  <rect x="363" y="352" width="180" height="6" rx="3" fill="#9CA3AF" opacity="0.22"/>
  <rect x="363" y="364" width="150" height="6" rx="3" fill="#9CA3AF" opacity="0.18"/>

  <rect x="351" y="396" width="220" height="160" rx="10" fill="#A78BFA" opacity="0.05" stroke="#DDD6FE" stroke-width="1"/>
  <rect x="367" y="409" width="110" height="7" rx="3" fill="#A78BFA" opacity="0.4"/>
  <rect x="367" y="422" width="180" height="6" rx="3" fill="#9CA3AF" opacity="0.2"/>
  <rect x="367" y="450" width="100" height="20" rx="10" fill="#A78BFA" opacity="0.1"/>
  <rect x="477" y="450" width="80" height="20" rx="10" fill="#A78BFA" opacity="0.08"/>
  <rect x="367" y="478" width="140" height="20" rx="10" fill="#7F77DD" opacity="0.08"/>
  <rect x="367" y="506" width="120" height="20" rx="10" fill="#10B981" opacity="0.07"/>

  <!-- Week 3 card -->
  <rect x="610" y="148" width="255" height="430" rx="16" fill="white" filter="url(#shadow)"/>
  <rect x="610" y="148" width="255" height="40" rx="16" fill="#3B82F6" opacity="0.6"/>
  <rect x="610" y="172" width="255" height="16" fill="#3B82F6" opacity="0.6"/>
  <rect x="626" y="158" width="110" height="8" rx="4" fill="white" opacity="0.65"/>

  <rect x="626" y="204" width="220" height="52" rx="10" fill="#EFF6FF" stroke="#BFDBFE" stroke-width="1"/>
  <rect x="638" y="215" width="130" height="7" rx="3" fill="#3B82F6" opacity="0.5"/>
  <rect x="638" y="228" width="180" height="6" rx="3" fill="#9CA3AF" opacity="0.28"/>
  <rect x="638" y="240" width="160" height="6" rx="3" fill="#9CA3AF" opacity="0.22"/>

  <rect x="626" y="266" width="220" height="52" rx="10" fill="#EFF6FF" stroke="#BFDBFE" stroke-width="1"/>
  <rect x="638" y="277" width="150" height="7" rx="3" fill="#3B82F6" opacity="0.45"/>
  <rect x="638" y="290" width="180" height="6" rx="3" fill="#9CA3AF" opacity="0.25"/>
  <rect x="638" y="302" width="150" height="6" rx="3" fill="#9CA3AF" opacity="0.2"/>

  <rect x="626" y="328" width="220" height="52" rx="10" fill="#EFF6FF" stroke="#BFDBFE" stroke-width="1"/>
  <rect x="638" y="339" width="120" height="7" rx="3" fill="#3B82F6" opacity="0.4"/>
  <rect x="638" y="352" width="180" height="6" rx="3" fill="#9CA3AF" opacity="0.22"/>
  <rect x="638" y="364" width="150" height="6" rx="3" fill="#9CA3AF" opacity="0.18"/>

  <rect x="626" y="396" width="220" height="160" rx="10" fill="#3B82F6" opacity="0.04" stroke="#BFDBFE" stroke-width="1"/>
  <rect x="642" y="409" width="100" height="7" rx="3" fill="#3B82F6" opacity="0.4"/>
  <rect x="642" y="422" width="180" height="6" rx="3" fill="#9CA3AF" opacity="0.2"/>
  <rect x="642" y="450" width="110" height="20" rx="10" fill="#3B82F6" opacity="0.1"/>
  <rect x="762" y="450" width="70" height="20" rx="10" fill="#3B82F6" opacity="0.08"/>
  <rect x="642" y="478" width="130" height="20" rx="10" fill="#7F77DD" opacity="0.08"/>
  <rect x="642" y="506" width="100" height="20" rx="10" fill="#10B981" opacity="0.07"/>

  <!-- Week 4 card -->
  <rect x="885" y="148" width="255" height="430" rx="16" fill="white" filter="url(#shadow)"/>
  <rect x="885" y="148" width="255" height="40" rx="16" fill="#10B981" opacity="0.6"/>
  <rect x="885" y="172" width="255" height="16" fill="#10B981" opacity="0.6"/>
  <rect x="901" y="158" width="110" height="8" rx="4" fill="white" opacity="0.65"/>

  <rect x="901" y="204" width="220" height="52" rx="10" fill="#F0FDF4" stroke="#A7F3D0" stroke-width="1"/>
  <rect x="913" y="215" width="130" height="7" rx="3" fill="#10B981" opacity="0.5"/>
  <rect x="913" y="228" width="180" height="6" rx="3" fill="#9CA3AF" opacity="0.28"/>
  <rect x="913" y="240" width="160" height="6" rx="3" fill="#9CA3AF" opacity="0.22"/>
  <circle cx="1100" cy="230" r="8" fill="#10B981" opacity="0.3"/>

  <rect x="901" y="266" width="220" height="52" rx="10" fill="#F0FDF4" stroke="#A7F3D0" stroke-width="1"/>
  <rect x="913" y="277" width="150" height="7" rx="3" fill="#10B981" opacity="0.45"/>
  <rect x="913" y="290" width="180" height="6" rx="3" fill="#9CA3AF" opacity="0.25"/>
  <rect x="913" y="302" width="150" height="6" rx="3" fill="#9CA3AF" opacity="0.2"/>
  <circle cx="1100" cy="294" r="8" fill="#10B981" opacity="0.3"/>

  <rect x="901" y="328" width="220" height="52" rx="10" fill="#F0FDF4" stroke="#A7F3D0" stroke-width="1"/>
  <rect x="913" y="339" width="120" height="7" rx="3" fill="#10B981" opacity="0.4"/>
  <rect x="913" y="352" width="180" height="6" rx="3" fill="#9CA3AF" opacity="0.22"/>
  <rect x="913" y="364" width="150" height="6" rx="3" fill="#9CA3AF" opacity="0.18"/>
  <circle cx="1100" cy="358" r="8" fill="#10B981" opacity="0.3"/>

  <!-- Outcome summary -->
  <rect x="901" y="396" width="220" height="160" rx="10" fill="#F0FDF4" stroke="#A7F3D0" stroke-width="1"/>
  <rect x="917" y="409" width="130" height="7" rx="3" fill="#10B981" opacity="0.5"/>
  <rect x="917" y="422" width="180" height="6" rx="3" fill="#9CA3AF" opacity="0.22"/>
  <rect x="917" y="450" width="80" height="28" rx="8" fill="#10B981" opacity="0.15"/>
  <rect x="1007" y="450" width="80" height="28" rx="8" fill="#10B981" opacity="0.12"/>
  <rect x="917" y="488" width="80" height="28" rx="8" fill="#7F77DD" opacity="0.1"/>
  <rect x="1007" y="488" width="80" height="28" rx="8" fill="#7F77DD" opacity="0.08"/>
  <rect x="917" y="526" width="170" height="6" rx="3" fill="#9CA3AF" opacity="0.2"/>

  <circle cx="60" cy="580" r="45" fill="#7F77DD" opacity="0.04"/>
  <circle cx="1150" cy="90" r="40" fill="#A78BFA" opacity="0.05"/>
</svg>
